ISO-10303-21;
HEADER;
/* Generated by software containing ST-Developer
 * from STEP Tools, Inc. (www.steptools.com) 
 */

FILE_DESCRIPTION(
/* description */ ('STEP AP242'),
/* implementation_level */ '2;1');

FILE_NAME(
/* name */ 'sointerface.step',
/* time_stamp */ '2026-02-14T16:26:08+09:00',
/* author */ (''),
/* organization */ (''),
/* preprocessor_version */ 'ST-DEVELOPER v20.1',
/* originating_system */ 'Autodesk Translation Framework v14.24.0.0',
/* authorisation */ '');

FILE_SCHEMA (('AUTOMOTIVE_DESIGN { 1 0 10303 214 3 1 1 }'));
ENDSEC;

DATA;
#10=MECHANICAL_DESIGN_GEOMETRIC_PRESENTATION_REPRESENTATION('',(#13,#14),
#1566);
#11=SHAPE_REPRESENTATION_RELATIONSHIP('SRR','None',#1572,#12);
#12=ADVANCED_BREP_SHAPE_REPRESENTATION('',(#15,#16),#1565);
#13=STYLED_ITEM('',(#1582),#15);
#14=STYLED_ITEM('',(#1581),#16);
#15=MANIFOLD_SOLID_BREP('Body1',#898);
#16=MANIFOLD_SOLID_BREP('Body2',#899);
#17=CONICAL_SURFACE('',#983,0.0105,0.785398163397448);
#18=FACE_BOUND('',#128,.T.);
#19=FACE_BOUND('',#129,.T.);
#20=FACE_BOUND('',#133,.T.);
#21=FACE_BOUND('',#134,.T.);
#22=FACE_BOUND('',#138,.T.);
#23=FACE_BOUND('',#140,.T.);
#24=FACE_BOUND('',#142,.T.);
#25=FACE_BOUND('',#144,.T.);
#26=FACE_BOUND('',#146,.T.);
#27=FACE_BOUND('',#147,.T.);
#28=FACE_BOUND('',#148,.T.);
#29=FACE_BOUND('',#149,.T.);
#30=FACE_BOUND('',#150,.T.);
#31=FACE_BOUND('',#151,.T.);
#32=FACE_BOUND('',#152,.T.);
#33=FACE_BOUND('',#153,.T.);
#34=FACE_BOUND('',#154,.T.);
#35=FACE_BOUND('',#157,.T.);
#36=FACE_BOUND('',#160,.T.);
#37=FACE_BOUND('',#161,.T.);
#38=FACE_BOUND('',#162,.T.);
#39=FACE_BOUND('',#163,.T.);
#40=FACE_BOUND('',#164,.T.);
#41=FACE_BOUND('',#177,.T.);
#42=FACE_BOUND('',#181,.T.);
#43=FACE_BOUND('',#185,.T.);
#44=FACE_BOUND('',#189,.T.);
#45=PLANE('',#925);
#46=PLANE('',#933);
#47=PLANE('',#936);
#48=PLANE('',#944);
#49=PLANE('',#947);
#50=PLANE('',#949);
#51=PLANE('',#951);
#52=PLANE('',#953);
#53=PLANE('',#955);
#54=PLANE('',#976);
#55=PLANE('',#981);
#56=PLANE('',#984);
#57=PLANE('',#985);
#58=PLANE('',#986);
#59=PLANE('',#987);
#60=PLANE('',#995);
#61=PLANE('',#1000);
#62=PLANE('',#1005);
#63=PLANE('',#1010);
#64=PLANE('',#1019);
#65=PLANE('',#1020);
#66=PLANE('',#1021);
#67=PLANE('',#1022);
#68=PLANE('',#1023);
#69=PLANE('',#1024);
#70=FACE_OUTER_BOUND('',#123,.T.);
#71=FACE_OUTER_BOUND('',#124,.T.);
#72=FACE_OUTER_BOUND('',#125,.T.);
#73=FACE_OUTER_BOUND('',#126,.T.);
#74=FACE_OUTER_BOUND('',#127,.T.);
#75=FACE_OUTER_BOUND('',#130,.T.);
#76=FACE_OUTER_BOUND('',#131,.T.);
#77=FACE_OUTER_BOUND('',#132,.T.);
#78=FACE_OUTER_BOUND('',#135,.T.);
#79=FACE_OUTER_BOUND('',#136,.T.);
#80=FACE_OUTER_BOUND('',#137,.T.);
#81=FACE_OUTER_BOUND('',#139,.T.);
#82=FACE_OUTER_BOUND('',#141,.T.);
#83=FACE_OUTER_BOUND('',#143,.T.);
#84=FACE_OUTER_BOUND('',#145,.T.);
#85=FACE_OUTER_BOUND('',#155,.T.);
#86=FACE_OUTER_BOUND('',#156,.T.);
#87=FACE_OUTER_BOUND('',#158,.T.);
#88=FACE_OUTER_BOUND('',#159,.T.);
#89=FACE_OUTER_BOUND('',#165,.T.);
#90=FACE_OUTER_BOUND('',#166,.T.);
#91=FACE_OUTER_BOUND('',#167,.T.);
#92=FACE_OUTER_BOUND('',#168,.T.);
#93=FACE_OUTER_BOUND('',#169,.T.);
#94=FACE_OUTER_BOUND('',#170,.T.);
#95=FACE_OUTER_BOUND('',#171,.T.);
#96=FACE_OUTER_BOUND('',#172,.T.);
#97=FACE_OUTER_BOUND('',#173,.T.);
#98=FACE_OUTER_BOUND('',#174,.T.);
#99=FACE_OUTER_BOUND('',#175,.T.);
#100=FACE_OUTER_BOUND('',#176,.T.);
#101=FACE_OUTER_BOUND('',#178,.T.);
#102=FACE_OUTER_BOUND('',#179,.T.);
#103=FACE_OUTER_BOUND('',#180,.T.);
#104=FACE_OUTER_BOUND('',#182,.T.);
#105=FACE_OUTER_BOUND('',#183,.T.);
#106=FACE_OUTER_BOUND('',#184,.T.);
#107=FACE_OUTER_BOUND('',#186,.T.);
#108=FACE_OUTER_BOUND('',#187,.T.);
#109=FACE_OUTER_BOUND('',#188,.T.);
#110=FACE_OUTER_BOUND('',#190,.T.);
#111=FACE_OUTER_BOUND('',#191,.T.);
#112=FACE_OUTER_BOUND('',#192,.T.);
#113=FACE_OUTER_BOUND('',#193,.T.);
#114=FACE_OUTER_BOUND('',#194,.T.);
#115=FACE_OUTER_BOUND('',#195,.T.);
#116=FACE_OUTER_BOUND('',#196,.T.);
#117=FACE_OUTER_BOUND('',#197,.T.);
#118=FACE_OUTER_BOUND('',#198,.T.);
#119=FACE_OUTER_BOUND('',#199,.T.);
#120=FACE_OUTER_BOUND('',#200,.T.);
#121=FACE_OUTER_BOUND('',#201,.T.);
#122=FACE_OUTER_BOUND('',#202,.T.);
#123=EDGE_LOOP('',(#580,#581,#582,#583));
#124=EDGE_LOOP('',(#584,#585,#586,#587));
#125=EDGE_LOOP('',(#588,#589,#590,#591));
#126=EDGE_LOOP('',(#592,#593,#594,#595));
#127=EDGE_LOOP('',(#596,#597,#598,#599,#600,#601,#602,#603));
#128=EDGE_LOOP('',(#604));
#129=EDGE_LOOP('',(#605));
#130=EDGE_LOOP('',(#606,#607,#608,#609));
#131=EDGE_LOOP('',(#610,#611,#612,#613));
#132=EDGE_LOOP('',(#614,#615,#616,#617,#618,#619,#620,#621));
#133=EDGE_LOOP('',(#622));
#134=EDGE_LOOP('',(#623));
#135=EDGE_LOOP('',(#624,#625,#626,#627));
#136=EDGE_LOOP('',(#628,#629,#630,#631));
#137=EDGE_LOOP('',(#632));
#138=EDGE_LOOP('',(#633));
#139=EDGE_LOOP('',(#634));
#140=EDGE_LOOP('',(#635));
#141=EDGE_LOOP('',(#636));
#142=EDGE_LOOP('',(#637));
#143=EDGE_LOOP('',(#638));
#144=EDGE_LOOP('',(#639));
#145=EDGE_LOOP('',(#640,#641,#642,#643,#644,#645,#646,#647,#648,#649,#650,
#651,#652,#653,#654,#655,#656));
#146=EDGE_LOOP('',(#657));
#147=EDGE_LOOP('',(#658));
#148=EDGE_LOOP('',(#659));
#149=EDGE_LOOP('',(#660));
#150=EDGE_LOOP('',(#661));
#151=EDGE_LOOP('',(#662));
#152=EDGE_LOOP('',(#663));
#153=EDGE_LOOP('',(#664));
#154=EDGE_LOOP('',(#665));
#155=EDGE_LOOP('',(#666,#667,#668,#669,#670,#671,#672,#673,#674,#675,#676,
#677));
#156=EDGE_LOOP('',(#678));
#157=EDGE_LOOP('',(#679));
#158=EDGE_LOOP('',(#680,#681,#682,#683));
#159=EDGE_LOOP('',(#684));
#160=EDGE_LOOP('',(#685));
#161=EDGE_LOOP('',(#686));
#162=EDGE_LOOP('',(#687));
#163=EDGE_LOOP('',(#688));
#164=EDGE_LOOP('',(#689));
#165=EDGE_LOOP('',(#690,#691,#692,#693));
#166=EDGE_LOOP('',(#694,#695,#696,#697));
#167=EDGE_LOOP('',(#698,#699,#700,#701));
#168=EDGE_LOOP('',(#702,#703,#704,#705));
#169=EDGE_LOOP('',(#706,#707,#708,#709));
#170=EDGE_LOOP('',(#710,#711,#712,#713));
#171=EDGE_LOOP('',(#714,#715,#716,#717));
#172=EDGE_LOOP('',(#718,#719,#720,#721));
#173=EDGE_LOOP('',(#722,#723,#724,#725));
#174=EDGE_LOOP('',(#726,#727,#728,#729));
#175=EDGE_LOOP('',(#730,#731,#732,#733));
#176=EDGE_LOOP('',(#734));
#177=EDGE_LOOP('',(#735));
#178=EDGE_LOOP('',(#736,#737,#738,#739));
#179=EDGE_LOOP('',(#740,#741,#742,#743));
#180=EDGE_LOOP('',(#744));
#181=EDGE_LOOP('',(#745));
#182=EDGE_LOOP('',(#746,#747,#748,#749));
#183=EDGE_LOOP('',(#750,#751,#752,#753));
#184=EDGE_LOOP('',(#754));
#185=EDGE_LOOP('',(#755));
#186=EDGE_LOOP('',(#756,#757,#758,#759));
#187=EDGE_LOOP('',(#760,#761,#762,#763));
#188=EDGE_LOOP('',(#764));
#189=EDGE_LOOP('',(#765));
#190=EDGE_LOOP('',(#766,#767,#768,#769));
#191=EDGE_LOOP('',(#770,#771,#772,#773));
#192=EDGE_LOOP('',(#774,#775,#776,#777));
#193=EDGE_LOOP('',(#778,#779,#780,#781));
#194=EDGE_LOOP('',(#782,#783,#784,#785));
#195=EDGE_LOOP('',(#786,#787,#788,#789));
#196=EDGE_LOOP('',(#790,#791,#792,#793));
#197=EDGE_LOOP('',(#794,#795,#796,#797));
#198=EDGE_LOOP('',(#798,#799,#800,#801));
#199=EDGE_LOOP('',(#802,#803,#804,#805));
#200=EDGE_LOOP('',(#806,#807,#808,#809));
#201=EDGE_LOOP('',(#810,#811,#812,#813));
#202=EDGE_LOOP('',(#814,#815,#816,#817));
#203=LINE('',#1316,#263);
#204=LINE('',#1322,#264);
#205=LINE('',#1328,#265);
#206=LINE('',#1334,#266);
#207=LINE('',#1339,#267);
#208=LINE('',#1343,#268);
#209=LINE('',#1347,#269);
#210=LINE('',#1359,#270);
#211=LINE('',#1361,#271);
#212=LINE('',#1362,#272);
#213=LINE('',#1365,#273);
#214=LINE('',#1370,#274);
#215=LINE('',#1374,#275);
#216=LINE('',#1382,#276);
#217=LINE('',#1390,#277);
#218=LINE('',#1392,#278);
#219=LINE('',#1393,#279);
#220=LINE('',#1396,#280);
#221=LINE('',#1413,#281);
#222=LINE('',#1422,#282);
#223=LINE('',#1426,#283);
#224=LINE('',#1433,#284);
#225=LINE('',#1456,#285);
#226=LINE('',#1457,#286);
#227=LINE('',#1458,#287);
#228=LINE('',#1466,#288);
#229=LINE('',#1472,#289);
#230=LINE('',#1474,#290);
#231=LINE('',#1475,#291);
#232=LINE('',#1477,#292);
#233=LINE('',#1478,#293);
#234=LINE('',#1480,#294);
#235=LINE('',#1481,#295);
#236=LINE('',#1483,#296);
#237=LINE('',#1484,#297);
#238=LINE('',#1486,#298);
#239=LINE('',#1488,#299);
#240=LINE('',#1490,#300);
#241=LINE('',#1492,#301);
#242=LINE('',#1494,#302);
#243=LINE('',#1498,#303);
#244=LINE('',#1503,#304);
#245=LINE('',#1507,#305);
#246=LINE('',#1512,#306);
#247=LINE('',#1516,#307);
#248=LINE('',#1521,#308);
#249=LINE('',#1525,#309);
#250=LINE('',#1530,#310);
#251=LINE('',#1540,#311);
#252=LINE('',#1542,#312);
#253=LINE('',#1544,#313);
#254=LINE('',#1545,#314);
#255=LINE('',#1548,#315);
#256=LINE('',#1550,#316);
#257=LINE('',#1551,#317);
#258=LINE('',#1554,#318);
#259=LINE('',#1556,#319);
#260=LINE('',#1557,#320);
#261=LINE('',#1559,#321);
#262=LINE('',#1560,#322);
#263=VECTOR('',#1031,0.00175);
#264=VECTOR('',#1038,0.00175);
#265=VECTOR('',#1045,0.00175);
#266=VECTOR('',#1052,0.00175);
#267=VECTOR('',#1057,0.01);
#268=VECTOR('',#1060,0.01);
#269=VECTOR('',#1063,0.01);
#270=VECTOR('',#1076,1.);
#271=VECTOR('',#1077,1.);
#272=VECTOR('',#1078,1.);
#273=VECTOR('',#1081,1.);
#274=VECTOR('',#1086,0.01);
#275=VECTOR('',#1089,0.01);
#276=VECTOR('',#1096,0.01);
#277=VECTOR('',#1105,1.);
#278=VECTOR('',#1106,1.);
#279=VECTOR('',#1107,1.);
#280=VECTOR('',#1110,1.);
#281=VECTOR('',#1131,1.);
#282=VECTOR('',#1140,1.);
#283=VECTOR('',#1143,1.);
#284=VECTOR('',#1150,1.);
#285=VECTOR('',#1175,0.012);
#286=VECTOR('',#1176,1.);
#287=VECTOR('',#1177,1.);
#288=VECTOR('',#1186,0.01);
#289=VECTOR('',#1195,0.0105);
#290=VECTOR('',#1198,1.);
#291=VECTOR('',#1199,1.);
#292=VECTOR('',#1202,1.);
#293=VECTOR('',#1203,1.);
#294=VECTOR('',#1206,1.);
#295=VECTOR('',#1207,1.);
#296=VECTOR('',#1210,1.);
#297=VECTOR('',#1211,1.);
#298=VECTOR('',#1214,0.00275);
#299=VECTOR('',#1217,0.00275);
#300=VECTOR('',#1220,0.00275);
#301=VECTOR('',#1223,0.00275);
#302=VECTOR('',#1226,0.00275);
#303=VECTOR('',#1231,0.00125);
#304=VECTOR('',#1238,0.00325);
#305=VECTOR('',#1243,0.00125);
#306=VECTOR('',#1250,0.00325);
#307=VECTOR('',#1255,0.00125);
#308=VECTOR('',#1262,0.00325);
#309=VECTOR('',#1267,0.00125);
#310=VECTOR('',#1274,0.00325);
#311=VECTOR('',#1289,0.01);
#312=VECTOR('',#1290,0.01);
#313=VECTOR('',#1291,0.01);
#314=VECTOR('',#1292,0.01);
#315=VECTOR('',#1295,0.01);
#316=VECTOR('',#1296,0.01);
#317=VECTOR('',#1297,0.01);
#318=VECTOR('',#1300,0.01);
#319=VECTOR('',#1301,0.01);
#320=VECTOR('',#1302,0.01);
#321=VECTOR('',#1305,0.01);
#322=VECTOR('',#1306,0.01);
#323=CIRCLE('',#914,0.00175);
#324=CIRCLE('',#915,0.00175);
#325=CIRCLE('',#917,0.00175);
#326=CIRCLE('',#918,0.00175);
#327=CIRCLE('',#920,0.00175);
#328=CIRCLE('',#921,0.00175);
#329=CIRCLE('',#923,0.00175);
#330=CIRCLE('',#924,0.00175);
#331=CIRCLE('',#926,0.0035);
#332=CIRCLE('',#927,0.0035);
#333=CIRCLE('',#928,0.0035);
#334=CIRCLE('',#929,0.012);
#335=CIRCLE('',#930,0.0035);
#336=CIRCLE('',#931,0.00325);
#337=CIRCLE('',#932,0.00325);
#338=CIRCLE('',#935,0.0035);
#339=CIRCLE('',#937,0.0035);
#340=CIRCLE('',#938,0.0035);
#341=CIRCLE('',#939,0.012);
#342=CIRCLE('',#940,0.0035);
#343=CIRCLE('',#941,0.0035);
#344=CIRCLE('',#942,0.00325);
#345=CIRCLE('',#943,0.00325);
#346=CIRCLE('',#946,0.0035);
#347=CIRCLE('',#948,0.00275);
#348=CIRCLE('',#950,0.00275);
#349=CIRCLE('',#952,0.00275);
#350=CIRCLE('',#954,0.00275);
#351=CIRCLE('',#956,0.0035);
#352=CIRCLE('',#957,0.012);
#353=CIRCLE('',#958,0.012);
#354=CIRCLE('',#959,0.0035);
#355=CIRCLE('',#960,0.0035);
#356=CIRCLE('',#961,0.0035);
#357=CIRCLE('',#962,0.012);
#358=CIRCLE('',#963,0.0035);
#359=CIRCLE('',#964,0.0035);
#360=CIRCLE('',#965,0.00275);
#361=CIRCLE('',#966,0.00275);
#362=CIRCLE('',#967,0.00275);
#363=CIRCLE('',#968,0.00125);
#364=CIRCLE('',#969,0.00125);
#365=CIRCLE('',#970,0.00125);
#366=CIRCLE('',#971,0.00125);
#367=CIRCLE('',#972,0.00275);
#368=CIRCLE('',#973,0.00275);
#369=CIRCLE('',#975,0.012);
#370=CIRCLE('',#977,0.0105);
#371=CIRCLE('',#979,0.01);
#372=CIRCLE('',#980,0.01);
#373=CIRCLE('',#982,0.00275);
#374=CIRCLE('',#994,0.00125);
#375=CIRCLE('',#996,0.00325);
#376=CIRCLE('',#999,0.00125);
#377=CIRCLE('',#1001,0.00325);
#378=CIRCLE('',#1004,0.00125);
#379=CIRCLE('',#1006,0.00325);
#380=CIRCLE('',#1009,0.00125);
#381=CIRCLE('',#1011,0.00325);
#382=VERTEX_POINT('',#1313);
#383=VERTEX_POINT('',#1315);
#384=VERTEX_POINT('',#1319);
#385=VERTEX_POINT('',#1321);
#386=VERTEX_POINT('',#1325);
#387=VERTEX_POINT('',#1327);
#388=VERTEX_POINT('',#1331);
#389=VERTEX_POINT('',#1333);
#390=VERTEX_POINT('',#1337);
#391=VERTEX_POINT('',#1338);
#392=VERTEX_POINT('',#1340);
#393=VERTEX_POINT('',#1342);
#394=VERTEX_POINT('',#1344);
#395=VERTEX_POINT('',#1346);
#396=VERTEX_POINT('',#1348);
#397=VERTEX_POINT('',#1350);
#398=VERTEX_POINT('',#1353);
#399=VERTEX_POINT('',#1355);
#400=VERTEX_POINT('',#1358);
#401=VERTEX_POINT('',#1360);
#402=VERTEX_POINT('',#1364);
#403=VERTEX_POINT('',#1368);
#404=VERTEX_POINT('',#1369);
#405=VERTEX_POINT('',#1371);
#406=VERTEX_POINT('',#1373);
#407=VERTEX_POINT('',#1375);
#408=VERTEX_POINT('',#1377);
#409=VERTEX_POINT('',#1379);
#410=VERTEX_POINT('',#1381);
#411=VERTEX_POINT('',#1384);
#412=VERTEX_POINT('',#1386);
#413=VERTEX_POINT('',#1389);
#414=VERTEX_POINT('',#1391);
#415=VERTEX_POINT('',#1395);
#416=VERTEX_POINT('',#1399);
#417=VERTEX_POINT('',#1402);
#418=VERTEX_POINT('',#1405);
#419=VERTEX_POINT('',#1408);
#420=VERTEX_POINT('',#1411);
#421=VERTEX_POINT('',#1412);
#422=VERTEX_POINT('',#1415);
#423=VERTEX_POINT('',#1417);
#424=VERTEX_POINT('',#1419);
#425=VERTEX_POINT('',#1421);
#426=VERTEX_POINT('',#1423);
#427=VERTEX_POINT('',#1425);
#428=VERTEX_POINT('',#1428);
#429=VERTEX_POINT('',#1430);
#430=VERTEX_POINT('',#1432);
#431=VERTEX_POINT('',#1435);
#432=VERTEX_POINT('',#1437);
#433=VERTEX_POINT('',#1439);
#434=VERTEX_POINT('',#1441);
#435=VERTEX_POINT('',#1443);
#436=VERTEX_POINT('',#1445);
#437=VERTEX_POINT('',#1447);
#438=VERTEX_POINT('',#1449);
#439=VERTEX_POINT('',#1451);
#440=VERTEX_POINT('',#1454);
#441=VERTEX_POINT('',#1460);
#442=VERTEX_POINT('',#1463);
#443=VERTEX_POINT('',#1465);
#444=VERTEX_POINT('',#1469);
#445=VERTEX_POINT('',#1496);
#446=VERTEX_POINT('',#1500);
#447=VERTEX_POINT('',#1505);
#448=VERTEX_POINT('',#1509);
#449=VERTEX_POINT('',#1514);
#450=VERTEX_POINT('',#1518);
#451=VERTEX_POINT('',#1523);
#452=VERTEX_POINT('',#1527);
#453=VERTEX_POINT('',#1538);
#454=VERTEX_POINT('',#1539);
#455=VERTEX_POINT('',#1541);
#456=VERTEX_POINT('',#1543);
#457=VERTEX_POINT('',#1547);
#458=VERTEX_POINT('',#1549);
#459=VERTEX_POINT('',#1553);
#460=VERTEX_POINT('',#1555);
#461=EDGE_CURVE('',#382,#382,#323,.T.);
#462=EDGE_CURVE('',#382,#383,#203,.T.);
#463=EDGE_CURVE('',#383,#383,#324,.T.);
#464=EDGE_CURVE('',#384,#384,#325,.T.);
#465=EDGE_CURVE('',#384,#385,#204,.T.);
#466=EDGE_CURVE('',#385,#385,#326,.T.);
#467=EDGE_CURVE('',#386,#386,#327,.T.);
#468=EDGE_CURVE('',#386,#387,#205,.T.);
#469=EDGE_CURVE('',#387,#387,#328,.T.);
#470=EDGE_CURVE('',#388,#388,#329,.T.);
#471=EDGE_CURVE('',#388,#389,#206,.T.);
#472=EDGE_CURVE('',#389,#389,#330,.T.);
#473=EDGE_CURVE('',#390,#391,#207,.T.);
#474=EDGE_CURVE('',#392,#390,#331,.T.);
#475=EDGE_CURVE('',#393,#392,#208,.T.);
#476=EDGE_CURVE('',#394,#393,#332,.T.);
#477=EDGE_CURVE('',#395,#394,#209,.T.);
#478=EDGE_CURVE('',#396,#395,#333,.T.);
#479=EDGE_CURVE('',#397,#396,#334,.T.);
#480=EDGE_CURVE('',#391,#397,#335,.T.);
#481=EDGE_CURVE('',#398,#398,#336,.T.);
#482=EDGE_CURVE('',#399,#399,#337,.T.);
#483=EDGE_CURVE('',#391,#400,#210,.F.);
#484=EDGE_CURVE('',#400,#401,#211,.T.);
#485=EDGE_CURVE('',#401,#390,#212,.T.);
#486=EDGE_CURVE('',#402,#397,#213,.T.);
#487=EDGE_CURVE('',#400,#402,#338,.F.);
#488=EDGE_CURVE('',#403,#404,#214,.T.);
#489=EDGE_CURVE('',#405,#403,#339,.T.);
#490=EDGE_CURVE('',#406,#405,#215,.T.);
#491=EDGE_CURVE('',#407,#406,#340,.T.);
#492=EDGE_CURVE('',#408,#407,#341,.T.);
#493=EDGE_CURVE('',#409,#408,#342,.T.);
#494=EDGE_CURVE('',#410,#409,#216,.T.);
#495=EDGE_CURVE('',#404,#410,#343,.T.);
#496=EDGE_CURVE('',#411,#411,#344,.T.);
#497=EDGE_CURVE('',#412,#412,#345,.T.);
#498=EDGE_CURVE('',#409,#413,#217,.T.);
#499=EDGE_CURVE('',#414,#413,#218,.T.);
#500=EDGE_CURVE('',#414,#410,#219,.T.);
#501=EDGE_CURVE('',#415,#408,#220,.T.);
#502=EDGE_CURVE('',#413,#415,#346,.F.);
#503=EDGE_CURVE('',#416,#416,#347,.T.);
#504=EDGE_CURVE('',#417,#417,#348,.T.);
#505=EDGE_CURVE('',#418,#418,#349,.T.);
#506=EDGE_CURVE('',#419,#419,#350,.T.);
#507=EDGE_CURVE('',#420,#421,#221,.T.);
#508=EDGE_CURVE('',#421,#401,#351,.T.);
#509=EDGE_CURVE('',#402,#422,#352,.T.);
#510=EDGE_CURVE('',#422,#423,#353,.T.);
#511=EDGE_CURVE('',#423,#424,#354,.F.);
#512=EDGE_CURVE('',#425,#424,#222,.T.);
#513=EDGE_CURVE('',#425,#426,#355,.T.);
#514=EDGE_CURVE('',#427,#426,#223,.T.);
#515=EDGE_CURVE('',#427,#414,#356,.T.);
#516=EDGE_CURVE('',#415,#428,#357,.T.);
#517=EDGE_CURVE('',#428,#429,#358,.F.);
#518=EDGE_CURVE('',#429,#430,#224,.T.);
#519=EDGE_CURVE('',#430,#420,#359,.T.);
#520=EDGE_CURVE('',#431,#431,#360,.F.);
#521=EDGE_CURVE('',#432,#432,#361,.F.);
#522=EDGE_CURVE('',#433,#433,#362,.F.);
#523=EDGE_CURVE('',#434,#434,#363,.F.);
#524=EDGE_CURVE('',#435,#435,#364,.F.);
#525=EDGE_CURVE('',#436,#436,#365,.F.);
#526=EDGE_CURVE('',#437,#437,#366,.F.);
#527=EDGE_CURVE('',#438,#438,#367,.F.);
#528=EDGE_CURVE('',#439,#439,#368,.F.);
#529=EDGE_CURVE('',#440,#440,#369,.T.);
#530=EDGE_CURVE('',#440,#422,#225,.T.);
#531=EDGE_CURVE('',#396,#428,#226,.F.);
#532=EDGE_CURVE('',#407,#423,#227,.F.);
#533=EDGE_CURVE('',#441,#441,#370,.T.);
#534=EDGE_CURVE('',#442,#442,#371,.T.);
#535=EDGE_CURVE('',#442,#443,#228,.T.);
#536=EDGE_CURVE('',#443,#443,#372,.F.);
#537=EDGE_CURVE('',#444,#444,#373,.T.);
#538=EDGE_CURVE('',#443,#441,#229,.T.);
#539=EDGE_CURVE('',#404,#427,#230,.F.);
#540=EDGE_CURVE('',#426,#403,#231,.T.);
#541=EDGE_CURVE('',#394,#430,#232,.F.);
#542=EDGE_CURVE('',#429,#395,#233,.F.);
#543=EDGE_CURVE('',#392,#421,#234,.F.);
#544=EDGE_CURVE('',#420,#393,#235,.T.);
#545=EDGE_CURVE('',#405,#425,#236,.F.);
#546=EDGE_CURVE('',#424,#406,#237,.T.);
#547=EDGE_CURVE('',#433,#418,#238,.T.);
#548=EDGE_CURVE('',#431,#444,#239,.T.);
#549=EDGE_CURVE('',#438,#416,#240,.T.);
#550=EDGE_CURVE('',#432,#417,#241,.T.);
#551=EDGE_CURVE('',#439,#419,#242,.T.);
#552=EDGE_CURVE('',#445,#445,#374,.T.);
#553=EDGE_CURVE('',#445,#436,#243,.T.);
#554=EDGE_CURVE('',#446,#446,#375,.T.);
#555=EDGE_CURVE('',#399,#446,#244,.T.);
#556=EDGE_CURVE('',#447,#447,#376,.T.);
#557=EDGE_CURVE('',#447,#435,#245,.T.);
#558=EDGE_CURVE('',#448,#448,#377,.T.);
#559=EDGE_CURVE('',#398,#448,#246,.T.);
#560=EDGE_CURVE('',#449,#449,#378,.T.);
#561=EDGE_CURVE('',#449,#437,#247,.T.);
#562=EDGE_CURVE('',#450,#450,#379,.T.);
#563=EDGE_CURVE('',#412,#450,#248,.T.);
#564=EDGE_CURVE('',#451,#451,#380,.T.);
#565=EDGE_CURVE('',#451,#434,#249,.T.);
#566=EDGE_CURVE('',#452,#452,#381,.T.);
#567=EDGE_CURVE('',#411,#452,#250,.T.);
#568=EDGE_CURVE('',#453,#454,#251,.T.);
#569=EDGE_CURVE('',#453,#455,#252,.T.);
#570=EDGE_CURVE('',#456,#455,#253,.T.);
#571=EDGE_CURVE('',#454,#456,#254,.T.);
#572=EDGE_CURVE('',#454,#457,#255,.T.);
#573=EDGE_CURVE('',#458,#456,#256,.T.);
#574=EDGE_CURVE('',#457,#458,#257,.T.);
#575=EDGE_CURVE('',#457,#459,#258,.T.);
#576=EDGE_CURVE('',#460,#458,#259,.T.);
#577=EDGE_CURVE('',#459,#460,#260,.T.);
#578=EDGE_CURVE('',#459,#453,#261,.T.);
#579=EDGE_CURVE('',#455,#460,#262,.T.);
#580=ORIENTED_EDGE('',*,*,#461,.F.);
#581=ORIENTED_EDGE('',*,*,#462,.T.);
#582=ORIENTED_EDGE('',*,*,#463,.F.);
#583=ORIENTED_EDGE('',*,*,#462,.F.);
#584=ORIENTED_EDGE('',*,*,#464,.F.);
#585=ORIENTED_EDGE('',*,*,#465,.T.);
#586=ORIENTED_EDGE('',*,*,#466,.F.);
#587=ORIENTED_EDGE('',*,*,#465,.F.);
#588=ORIENTED_EDGE('',*,*,#467,.F.);
#589=ORIENTED_EDGE('',*,*,#468,.T.);
#590=ORIENTED_EDGE('',*,*,#469,.F.);
#591=ORIENTED_EDGE('',*,*,#468,.F.);
#592=ORIENTED_EDGE('',*,*,#470,.F.);
#593=ORIENTED_EDGE('',*,*,#471,.T.);
#594=ORIENTED_EDGE('',*,*,#472,.F.);
#595=ORIENTED_EDGE('',*,*,#471,.F.);
#596=ORIENTED_EDGE('',*,*,#473,.F.);
#597=ORIENTED_EDGE('',*,*,#474,.F.);
#598=ORIENTED_EDGE('',*,*,#475,.F.);
#599=ORIENTED_EDGE('',*,*,#476,.F.);
#600=ORIENTED_EDGE('',*,*,#477,.F.);
#601=ORIENTED_EDGE('',*,*,#478,.F.);
#602=ORIENTED_EDGE('',*,*,#479,.F.);
#603=ORIENTED_EDGE('',*,*,#480,.F.);
#604=ORIENTED_EDGE('',*,*,#481,.F.);
#605=ORIENTED_EDGE('',*,*,#482,.F.);
#606=ORIENTED_EDGE('',*,*,#473,.T.);
#607=ORIENTED_EDGE('',*,*,#483,.T.);
#608=ORIENTED_EDGE('',*,*,#484,.T.);
#609=ORIENTED_EDGE('',*,*,#485,.T.);
#610=ORIENTED_EDGE('',*,*,#480,.T.);
#611=ORIENTED_EDGE('',*,*,#486,.F.);
#612=ORIENTED_EDGE('',*,*,#487,.F.);
#613=ORIENTED_EDGE('',*,*,#483,.F.);
#614=ORIENTED_EDGE('',*,*,#488,.F.);
#615=ORIENTED_EDGE('',*,*,#489,.F.);
#616=ORIENTED_EDGE('',*,*,#490,.F.);
#617=ORIENTED_EDGE('',*,*,#491,.F.);
#618=ORIENTED_EDGE('',*,*,#492,.F.);
#619=ORIENTED_EDGE('',*,*,#493,.F.);
#620=ORIENTED_EDGE('',*,*,#494,.F.);
#621=ORIENTED_EDGE('',*,*,#495,.F.);
#622=ORIENTED_EDGE('',*,*,#496,.F.);
#623=ORIENTED_EDGE('',*,*,#497,.F.);
#624=ORIENTED_EDGE('',*,*,#494,.T.);
#625=ORIENTED_EDGE('',*,*,#498,.T.);
#626=ORIENTED_EDGE('',*,*,#499,.F.);
#627=ORIENTED_EDGE('',*,*,#500,.T.);
#628=ORIENTED_EDGE('',*,*,#493,.T.);
#629=ORIENTED_EDGE('',*,*,#501,.F.);
#630=ORIENTED_EDGE('',*,*,#502,.F.);
#631=ORIENTED_EDGE('',*,*,#498,.F.);
#632=ORIENTED_EDGE('',*,*,#503,.F.);
#633=ORIENTED_EDGE('',*,*,#470,.T.);
#634=ORIENTED_EDGE('',*,*,#504,.F.);
#635=ORIENTED_EDGE('',*,*,#461,.T.);
#636=ORIENTED_EDGE('',*,*,#505,.F.);
#637=ORIENTED_EDGE('',*,*,#467,.T.);
#638=ORIENTED_EDGE('',*,*,#506,.F.);
#639=ORIENTED_EDGE('',*,*,#464,.T.);
#640=ORIENTED_EDGE('',*,*,#507,.T.);
#641=ORIENTED_EDGE('',*,*,#508,.T.);
#642=ORIENTED_EDGE('',*,*,#484,.F.);
#643=ORIENTED_EDGE('',*,*,#487,.T.);
#644=ORIENTED_EDGE('',*,*,#509,.T.);
#645=ORIENTED_EDGE('',*,*,#510,.T.);
#646=ORIENTED_EDGE('',*,*,#511,.T.);
#647=ORIENTED_EDGE('',*,*,#512,.F.);
#648=ORIENTED_EDGE('',*,*,#513,.T.);
#649=ORIENTED_EDGE('',*,*,#514,.F.);
#650=ORIENTED_EDGE('',*,*,#515,.T.);
#651=ORIENTED_EDGE('',*,*,#499,.T.);
#652=ORIENTED_EDGE('',*,*,#502,.T.);
#653=ORIENTED_EDGE('',*,*,#516,.T.);
#654=ORIENTED_EDGE('',*,*,#517,.T.);
#655=ORIENTED_EDGE('',*,*,#518,.T.);
#656=ORIENTED_EDGE('',*,*,#519,.T.);
#657=ORIENTED_EDGE('',*,*,#520,.T.);
#658=ORIENTED_EDGE('',*,*,#521,.T.);
#659=ORIENTED_EDGE('',*,*,#522,.T.);
#660=ORIENTED_EDGE('',*,*,#523,.T.);
#661=ORIENTED_EDGE('',*,*,#524,.T.);
#662=ORIENTED_EDGE('',*,*,#525,.T.);
#663=ORIENTED_EDGE('',*,*,#526,.T.);
#664=ORIENTED_EDGE('',*,*,#527,.T.);
#665=ORIENTED_EDGE('',*,*,#528,.T.);
#666=ORIENTED_EDGE('',*,*,#529,.T.);
#667=ORIENTED_EDGE('',*,*,#530,.T.);
#668=ORIENTED_EDGE('',*,*,#509,.F.);
#669=ORIENTED_EDGE('',*,*,#486,.T.);
#670=ORIENTED_EDGE('',*,*,#479,.T.);
#671=ORIENTED_EDGE('',*,*,#531,.T.);
#672=ORIENTED_EDGE('',*,*,#516,.F.);
#673=ORIENTED_EDGE('',*,*,#501,.T.);
#674=ORIENTED_EDGE('',*,*,#492,.T.);
#675=ORIENTED_EDGE('',*,*,#532,.T.);
#676=ORIENTED_EDGE('',*,*,#510,.F.);
#677=ORIENTED_EDGE('',*,*,#530,.F.);
#678=ORIENTED_EDGE('',*,*,#529,.F.);
#679=ORIENTED_EDGE('',*,*,#533,.T.);
#680=ORIENTED_EDGE('',*,*,#534,.T.);
#681=ORIENTED_EDGE('',*,*,#535,.T.);
#682=ORIENTED_EDGE('',*,*,#536,.T.);
#683=ORIENTED_EDGE('',*,*,#535,.F.);
#684=ORIENTED_EDGE('',*,*,#534,.F.);
#685=ORIENTED_EDGE('',*,*,#463,.T.);
#686=ORIENTED_EDGE('',*,*,#466,.T.);
#687=ORIENTED_EDGE('',*,*,#469,.T.);
#688=ORIENTED_EDGE('',*,*,#472,.T.);
#689=ORIENTED_EDGE('',*,*,#537,.T.);
#690=ORIENTED_EDGE('',*,*,#536,.F.);
#691=ORIENTED_EDGE('',*,*,#538,.T.);
#692=ORIENTED_EDGE('',*,*,#533,.F.);
#693=ORIENTED_EDGE('',*,*,#538,.F.);
#694=ORIENTED_EDGE('',*,*,#488,.T.);
#695=ORIENTED_EDGE('',*,*,#539,.T.);
#696=ORIENTED_EDGE('',*,*,#514,.T.);
#697=ORIENTED_EDGE('',*,*,#540,.T.);
#698=ORIENTED_EDGE('',*,*,#477,.T.);
#699=ORIENTED_EDGE('',*,*,#541,.T.);
#700=ORIENTED_EDGE('',*,*,#518,.F.);
#701=ORIENTED_EDGE('',*,*,#542,.T.);
#702=ORIENTED_EDGE('',*,*,#475,.T.);
#703=ORIENTED_EDGE('',*,*,#543,.T.);
#704=ORIENTED_EDGE('',*,*,#507,.F.);
#705=ORIENTED_EDGE('',*,*,#544,.T.);
#706=ORIENTED_EDGE('',*,*,#490,.T.);
#707=ORIENTED_EDGE('',*,*,#545,.T.);
#708=ORIENTED_EDGE('',*,*,#512,.T.);
#709=ORIENTED_EDGE('',*,*,#546,.T.);
#710=ORIENTED_EDGE('',*,*,#522,.F.);
#711=ORIENTED_EDGE('',*,*,#547,.T.);
#712=ORIENTED_EDGE('',*,*,#505,.T.);
#713=ORIENTED_EDGE('',*,*,#547,.F.);
#714=ORIENTED_EDGE('',*,*,#520,.F.);
#715=ORIENTED_EDGE('',*,*,#548,.T.);
#716=ORIENTED_EDGE('',*,*,#537,.F.);
#717=ORIENTED_EDGE('',*,*,#548,.F.);
#718=ORIENTED_EDGE('',*,*,#527,.F.);
#719=ORIENTED_EDGE('',*,*,#549,.T.);
#720=ORIENTED_EDGE('',*,*,#503,.T.);
#721=ORIENTED_EDGE('',*,*,#549,.F.);
#722=ORIENTED_EDGE('',*,*,#521,.F.);
#723=ORIENTED_EDGE('',*,*,#550,.T.);
#724=ORIENTED_EDGE('',*,*,#504,.T.);
#725=ORIENTED_EDGE('',*,*,#550,.F.);
#726=ORIENTED_EDGE('',*,*,#528,.F.);
#727=ORIENTED_EDGE('',*,*,#551,.T.);
#728=ORIENTED_EDGE('',*,*,#506,.T.);
#729=ORIENTED_EDGE('',*,*,#551,.F.);
#730=ORIENTED_EDGE('',*,*,#552,.F.);
#731=ORIENTED_EDGE('',*,*,#553,.T.);
#732=ORIENTED_EDGE('',*,*,#525,.F.);
#733=ORIENTED_EDGE('',*,*,#553,.F.);
#734=ORIENTED_EDGE('',*,*,#554,.F.);
#735=ORIENTED_EDGE('',*,*,#552,.T.);
#736=ORIENTED_EDGE('',*,*,#482,.T.);
#737=ORIENTED_EDGE('',*,*,#555,.T.);
#738=ORIENTED_EDGE('',*,*,#554,.T.);
#739=ORIENTED_EDGE('',*,*,#555,.F.);
#740=ORIENTED_EDGE('',*,*,#556,.F.);
#741=ORIENTED_EDGE('',*,*,#557,.T.);
#742=ORIENTED_EDGE('',*,*,#524,.F.);
#743=ORIENTED_EDGE('',*,*,#557,.F.);
#744=ORIENTED_EDGE('',*,*,#558,.F.);
#745=ORIENTED_EDGE('',*,*,#556,.T.);
#746=ORIENTED_EDGE('',*,*,#481,.T.);
#747=ORIENTED_EDGE('',*,*,#559,.T.);
#748=ORIENTED_EDGE('',*,*,#558,.T.);
#749=ORIENTED_EDGE('',*,*,#559,.F.);
#750=ORIENTED_EDGE('',*,*,#560,.F.);
#751=ORIENTED_EDGE('',*,*,#561,.T.);
#752=ORIENTED_EDGE('',*,*,#526,.F.);
#753=ORIENTED_EDGE('',*,*,#561,.F.);
#754=ORIENTED_EDGE('',*,*,#562,.F.);
#755=ORIENTED_EDGE('',*,*,#560,.T.);
#756=ORIENTED_EDGE('',*,*,#497,.T.);
#757=ORIENTED_EDGE('',*,*,#563,.T.);
#758=ORIENTED_EDGE('',*,*,#562,.T.);
#759=ORIENTED_EDGE('',*,*,#563,.F.);
#760=ORIENTED_EDGE('',*,*,#564,.F.);
#761=ORIENTED_EDGE('',*,*,#565,.T.);
#762=ORIENTED_EDGE('',*,*,#523,.F.);
#763=ORIENTED_EDGE('',*,*,#565,.F.);
#764=ORIENTED_EDGE('',*,*,#566,.F.);
#765=ORIENTED_EDGE('',*,*,#564,.T.);
#766=ORIENTED_EDGE('',*,*,#496,.T.);
#767=ORIENTED_EDGE('',*,*,#567,.T.);
#768=ORIENTED_EDGE('',*,*,#566,.T.);
#769=ORIENTED_EDGE('',*,*,#567,.F.);
#770=ORIENTED_EDGE('',*,*,#491,.T.);
#771=ORIENTED_EDGE('',*,*,#546,.F.);
#772=ORIENTED_EDGE('',*,*,#511,.F.);
#773=ORIENTED_EDGE('',*,*,#532,.F.);
#774=ORIENTED_EDGE('',*,*,#478,.T.);
#775=ORIENTED_EDGE('',*,*,#542,.F.);
#776=ORIENTED_EDGE('',*,*,#517,.F.);
#777=ORIENTED_EDGE('',*,*,#531,.F.);
#778=ORIENTED_EDGE('',*,*,#474,.T.);
#779=ORIENTED_EDGE('',*,*,#485,.F.);
#780=ORIENTED_EDGE('',*,*,#508,.F.);
#781=ORIENTED_EDGE('',*,*,#543,.F.);
#782=ORIENTED_EDGE('',*,*,#476,.T.);
#783=ORIENTED_EDGE('',*,*,#544,.F.);
#784=ORIENTED_EDGE('',*,*,#519,.F.);
#785=ORIENTED_EDGE('',*,*,#541,.F.);
#786=ORIENTED_EDGE('',*,*,#489,.T.);
#787=ORIENTED_EDGE('',*,*,#540,.F.);
#788=ORIENTED_EDGE('',*,*,#513,.F.);
#789=ORIENTED_EDGE('',*,*,#545,.F.);
#790=ORIENTED_EDGE('',*,*,#495,.T.);
#791=ORIENTED_EDGE('',*,*,#500,.F.);
#792=ORIENTED_EDGE('',*,*,#515,.F.);
#793=ORIENTED_EDGE('',*,*,#539,.F.);
#794=ORIENTED_EDGE('',*,*,#568,.F.);
#795=ORIENTED_EDGE('',*,*,#569,.T.);
#796=ORIENTED_EDGE('',*,*,#570,.F.);
#797=ORIENTED_EDGE('',*,*,#571,.F.);
#798=ORIENTED_EDGE('',*,*,#572,.F.);
#799=ORIENTED_EDGE('',*,*,#571,.T.);
#800=ORIENTED_EDGE('',*,*,#573,.F.);
#801=ORIENTED_EDGE('',*,*,#574,.F.);
#802=ORIENTED_EDGE('',*,*,#575,.F.);
#803=ORIENTED_EDGE('',*,*,#574,.T.);
#804=ORIENTED_EDGE('',*,*,#576,.F.);
#805=ORIENTED_EDGE('',*,*,#577,.F.);
#806=ORIENTED_EDGE('',*,*,#578,.F.);
#807=ORIENTED_EDGE('',*,*,#577,.T.);
#808=ORIENTED_EDGE('',*,*,#579,.F.);
#809=ORIENTED_EDGE('',*,*,#569,.F.);
#810=ORIENTED_EDGE('',*,*,#579,.T.);
#811=ORIENTED_EDGE('',*,*,#576,.T.);
#812=ORIENTED_EDGE('',*,*,#573,.T.);
#813=ORIENTED_EDGE('',*,*,#570,.T.);
#814=ORIENTED_EDGE('',*,*,#578,.T.);
#815=ORIENTED_EDGE('',*,*,#568,.T.);
#816=ORIENTED_EDGE('',*,*,#572,.T.);
#817=ORIENTED_EDGE('',*,*,#575,.T.);
#818=CYLINDRICAL_SURFACE('',#913,0.00175);
#819=CYLINDRICAL_SURFACE('',#916,0.00175);
#820=CYLINDRICAL_SURFACE('',#919,0.00175);
#821=CYLINDRICAL_SURFACE('',#922,0.00175);
#822=CYLINDRICAL_SURFACE('',#934,0.0035);
#823=CYLINDRICAL_SURFACE('',#945,0.0035);
#824=CYLINDRICAL_SURFACE('',#974,0.012);
#825=CYLINDRICAL_SURFACE('',#978,0.01);
#826=CYLINDRICAL_SURFACE('',#988,0.00275);
#827=CYLINDRICAL_SURFACE('',#989,0.00275);
#828=CYLINDRICAL_SURFACE('',#990,0.00275);
#829=CYLINDRICAL_SURFACE('',#991,0.00275);
#830=CYLINDRICAL_SURFACE('',#992,0.00275);
#831=CYLINDRICAL_SURFACE('',#993,0.00125);
#832=CYLINDRICAL_SURFACE('',#997,0.00325);
#833=CYLINDRICAL_SURFACE('',#998,0.00125);
#834=CYLINDRICAL_SURFACE('',#1002,0.00325);
#835=CYLINDRICAL_SURFACE('',#1003,0.00125);
#836=CYLINDRICAL_SURFACE('',#1007,0.00325);
#837=CYLINDRICAL_SURFACE('',#1008,0.00125);
#838=CYLINDRICAL_SURFACE('',#1012,0.00325);
#839=CYLINDRICAL_SURFACE('',#1013,0.0035);
#840=CYLINDRICAL_SURFACE('',#1014,0.0035);
#841=CYLINDRICAL_SURFACE('',#1015,0.0035);
#842=CYLINDRICAL_SURFACE('',#1016,0.0035);
#843=CYLINDRICAL_SURFACE('',#1017,0.0035);
#844=CYLINDRICAL_SURFACE('',#1018,0.0035);
#845=ADVANCED_FACE('',(#70),#818,.F.);
#846=ADVANCED_FACE('',(#71),#819,.F.);
#847=ADVANCED_FACE('',(#72),#820,.F.);
#848=ADVANCED_FACE('',(#73),#821,.F.);
#849=ADVANCED_FACE('',(#74,#18,#19),#45,.F.);
#850=ADVANCED_FACE('',(#75),#46,.T.);
#851=ADVANCED_FACE('',(#76),#822,.F.);
#852=ADVANCED_FACE('',(#77,#20,#21),#47,.F.);
#853=ADVANCED_FACE('',(#78),#48,.F.);
#854=ADVANCED_FACE('',(#79),#823,.F.);
#855=ADVANCED_FACE('',(#80,#22),#49,.T.);
#856=ADVANCED_FACE('',(#81,#23),#50,.T.);
#857=ADVANCED_FACE('',(#82,#24),#51,.T.);
#858=ADVANCED_FACE('',(#83,#25),#52,.T.);
#859=ADVANCED_FACE('',(#84,#26,#27,#28,#29,#30,#31,#32,#33,#34),#53,.T.);
#860=ADVANCED_FACE('',(#85),#824,.T.);
#861=ADVANCED_FACE('',(#86,#35),#54,.F.);
#862=ADVANCED_FACE('',(#87),#825,.F.);
#863=ADVANCED_FACE('',(#88,#36,#37,#38,#39,#40),#55,.F.);
#864=ADVANCED_FACE('',(#89),#17,.F.);
#865=ADVANCED_FACE('',(#90),#56,.T.);
#866=ADVANCED_FACE('',(#91),#57,.F.);
#867=ADVANCED_FACE('',(#92),#58,.F.);
#868=ADVANCED_FACE('',(#93),#59,.T.);
#869=ADVANCED_FACE('',(#94),#826,.F.);
#870=ADVANCED_FACE('',(#95),#827,.F.);
#871=ADVANCED_FACE('',(#96),#828,.F.);
#872=ADVANCED_FACE('',(#97),#829,.F.);
#873=ADVANCED_FACE('',(#98),#830,.F.);
#874=ADVANCED_FACE('',(#99),#831,.F.);
#875=ADVANCED_FACE('',(#100,#41),#60,.T.);
#876=ADVANCED_FACE('',(#101),#832,.F.);
#877=ADVANCED_FACE('',(#102),#833,.F.);
#878=ADVANCED_FACE('',(#103,#42),#61,.T.);
#879=ADVANCED_FACE('',(#104),#834,.F.);
#880=ADVANCED_FACE('',(#105),#835,.F.);
#881=ADVANCED_FACE('',(#106,#43),#62,.T.);
#882=ADVANCED_FACE('',(#107),#836,.F.);
#883=ADVANCED_FACE('',(#108),#837,.F.);
#884=ADVANCED_FACE('',(#109,#44),#63,.T.);
#885=ADVANCED_FACE('',(#110),#838,.F.);
#886=ADVANCED_FACE('',(#111),#839,.F.);
#887=ADVANCED_FACE('',(#112),#840,.F.);
#888=ADVANCED_FACE('',(#113),#841,.T.);
#889=ADVANCED_FACE('',(#114),#842,.T.);
#890=ADVANCED_FACE('',(#115),#843,.T.);
#891=ADVANCED_FACE('',(#116),#844,.T.);
#892=ADVANCED_FACE('',(#117),#64,.T.);
#893=ADVANCED_FACE('',(#118),#65,.T.);
#894=ADVANCED_FACE('',(#119),#66,.T.);
#895=ADVANCED_FACE('',(#120),#67,.T.);
#896=ADVANCED_FACE('',(#121),#68,.T.);
#897=ADVANCED_FACE('',(#122),#69,.F.);
#898=CLOSED_SHELL('',(#845,#846,#847,#848,#849,#850,#851,#852,#853,#854,
#855,#856,#857,#858,#859,#860,#861,#862,#863,#864,#865,#866,#867,#868,#869,
#870,#871,#872,#873,#874,#875,#876,#877,#878,#879,#880,#881,#882,#883,#884,
#885,#886,#887,#888,#889,#890,#891));
#899=CLOSED_SHELL('',(#892,#893,#894,#895,#896,#897));
#900=DERIVED_UNIT_ELEMENT(#902,1.);
#901=DERIVED_UNIT_ELEMENT(#1567,-3.);
#902=(
MASS_UNIT()
NAMED_UNIT(*)
SI_UNIT(.KILO.,.GRAM.)
);
#903=DERIVED_UNIT((#900,#901));
#904=MEASURE_REPRESENTATION_ITEM('density measure',
POSITIVE_RATIO_MEASURE(7850.),#903);
#905=PROPERTY_DEFINITION_REPRESENTATION(#910,#907);
#906=PROPERTY_DEFINITION_REPRESENTATION(#911,#908);
#907=REPRESENTATION('material name',(#909),#1565);
#908=REPRESENTATION('density',(#904),#1565);
#909=DESCRIPTIVE_REPRESENTATION_ITEM('Steel','Steel');
#910=PROPERTY_DEFINITION('material property','material name',#1574);
#911=PROPERTY_DEFINITION('material property','density of part',#1574);
#912=AXIS2_PLACEMENT_3D('',#1311,#1025,#1026);
#913=AXIS2_PLACEMENT_3D('',#1312,#1027,#1028);
#914=AXIS2_PLACEMENT_3D('',#1314,#1029,#1030);
#915=AXIS2_PLACEMENT_3D('',#1317,#1032,#1033);
#916=AXIS2_PLACEMENT_3D('',#1318,#1034,#1035);
#917=AXIS2_PLACEMENT_3D('',#1320,#1036,#1037);
#918=AXIS2_PLACEMENT_3D('',#1323,#1039,#1040);
#919=AXIS2_PLACEMENT_3D('',#1324,#1041,#1042);
#920=AXIS2_PLACEMENT_3D('',#1326,#1043,#1044);
#921=AXIS2_PLACEMENT_3D('',#1329,#1046,#1047);
#922=AXIS2_PLACEMENT_3D('',#1330,#1048,#1049);
#923=AXIS2_PLACEMENT_3D('',#1332,#1050,#1051);
#924=AXIS2_PLACEMENT_3D('',#1335,#1053,#1054);
#925=AXIS2_PLACEMENT_3D('',#1336,#1055,#1056);
#926=AXIS2_PLACEMENT_3D('',#1341,#1058,#1059);
#927=AXIS2_PLACEMENT_3D('',#1345,#1061,#1062);
#928=AXIS2_PLACEMENT_3D('',#1349,#1064,#1065);
#929=AXIS2_PLACEMENT_3D('',#1351,#1066,#1067);
#930=AXIS2_PLACEMENT_3D('',#1352,#1068,#1069);
#931=AXIS2_PLACEMENT_3D('',#1354,#1070,#1071);
#932=AXIS2_PLACEMENT_3D('',#1356,#1072,#1073);
#933=AXIS2_PLACEMENT_3D('',#1357,#1074,#1075);
#934=AXIS2_PLACEMENT_3D('',#1363,#1079,#1080);
#935=AXIS2_PLACEMENT_3D('',#1366,#1082,#1083);
#936=AXIS2_PLACEMENT_3D('',#1367,#1084,#1085);
#937=AXIS2_PLACEMENT_3D('',#1372,#1087,#1088);
#938=AXIS2_PLACEMENT_3D('',#1376,#1090,#1091);
#939=AXIS2_PLACEMENT_3D('',#1378,#1092,#1093);
#940=AXIS2_PLACEMENT_3D('',#1380,#1094,#1095);
#941=AXIS2_PLACEMENT_3D('',#1383,#1097,#1098);
#942=AXIS2_PLACEMENT_3D('',#1385,#1099,#1100);
#943=AXIS2_PLACEMENT_3D('',#1387,#1101,#1102);
#944=AXIS2_PLACEMENT_3D('',#1388,#1103,#1104);
#945=AXIS2_PLACEMENT_3D('',#1394,#1108,#1109);
#946=AXIS2_PLACEMENT_3D('',#1397,#1111,#1112);
#947=AXIS2_PLACEMENT_3D('',#1398,#1113,#1114);
#948=AXIS2_PLACEMENT_3D('',#1400,#1115,#1116);
#949=AXIS2_PLACEMENT_3D('',#1401,#1117,#1118);
#950=AXIS2_PLACEMENT_3D('',#1403,#1119,#1120);
#951=AXIS2_PLACEMENT_3D('',#1404,#1121,#1122);
#952=AXIS2_PLACEMENT_3D('',#1406,#1123,#1124);
#953=AXIS2_PLACEMENT_3D('',#1407,#1125,#1126);
#954=AXIS2_PLACEMENT_3D('',#1409,#1127,#1128);
#955=AXIS2_PLACEMENT_3D('',#1410,#1129,#1130);
#956=AXIS2_PLACEMENT_3D('',#1414,#1132,#1133);
#957=AXIS2_PLACEMENT_3D('',#1416,#1134,#1135);
#958=AXIS2_PLACEMENT_3D('',#1418,#1136,#1137);
#959=AXIS2_PLACEMENT_3D('',#1420,#1138,#1139);
#960=AXIS2_PLACEMENT_3D('',#1424,#1141,#1142);
#961=AXIS2_PLACEMENT_3D('',#1427,#1144,#1145);
#962=AXIS2_PLACEMENT_3D('',#1429,#1146,#1147);
#963=AXIS2_PLACEMENT_3D('',#1431,#1148,#1149);
#964=AXIS2_PLACEMENT_3D('',#1434,#1151,#1152);
#965=AXIS2_PLACEMENT_3D('',#1436,#1153,#1154);
#966=AXIS2_PLACEMENT_3D('',#1438,#1155,#1156);
#967=AXIS2_PLACEMENT_3D('',#1440,#1157,#1158);
#968=AXIS2_PLACEMENT_3D('',#1442,#1159,#1160);
#969=AXIS2_PLACEMENT_3D('',#1444,#1161,#1162);
#970=AXIS2_PLACEMENT_3D('',#1446,#1163,#1164);
#971=AXIS2_PLACEMENT_3D('',#1448,#1165,#1166);
#972=AXIS2_PLACEMENT_3D('',#1450,#1167,#1168);
#973=AXIS2_PLACEMENT_3D('',#1452,#1169,#1170);
#974=AXIS2_PLACEMENT_3D('',#1453,#1171,#1172);
#975=AXIS2_PLACEMENT_3D('',#1455,#1173,#1174);
#976=AXIS2_PLACEMENT_3D('',#1459,#1178,#1179);
#977=AXIS2_PLACEMENT_3D('',#1461,#1180,#1181);
#978=AXIS2_PLACEMENT_3D('',#1462,#1182,#1183);
#979=AXIS2_PLACEMENT_3D('',#1464,#1184,#1185);
#980=AXIS2_PLACEMENT_3D('',#1467,#1187,#1188);
#981=AXIS2_PLACEMENT_3D('',#1468,#1189,#1190);
#982=AXIS2_PLACEMENT_3D('',#1470,#1191,#1192);
#983=AXIS2_PLACEMENT_3D('',#1471,#1193,#1194);
#984=AXIS2_PLACEMENT_3D('',#1473,#1196,#1197);
#985=AXIS2_PLACEMENT_3D('',#1476,#1200,#1201);
#986=AXIS2_PLACEMENT_3D('',#1479,#1204,#1205);
#987=AXIS2_PLACEMENT_3D('',#1482,#1208,#1209);
#988=AXIS2_PLACEMENT_3D('',#1485,#1212,#1213);
#989=AXIS2_PLACEMENT_3D('',#1487,#1215,#1216);
#990=AXIS2_PLACEMENT_3D('',#1489,#1218,#1219);
#991=AXIS2_PLACEMENT_3D('',#1491,#1221,#1222);
#992=AXIS2_PLACEMENT_3D('',#1493,#1224,#1225);
#993=AXIS2_PLACEMENT_3D('',#1495,#1227,#1228);
#994=AXIS2_PLACEMENT_3D('',#1497,#1229,#1230);
#995=AXIS2_PLACEMENT_3D('',#1499,#1232,#1233);
#996=AXIS2_PLACEMENT_3D('',#1501,#1234,#1235);
#997=AXIS2_PLACEMENT_3D('',#1502,#1236,#1237);
#998=AXIS2_PLACEMENT_3D('',#1504,#1239,#1240);
#999=AXIS2_PLACEMENT_3D('',#1506,#1241,#1242);
#1000=AXIS2_PLACEMENT_3D('',#1508,#1244,#1245);
#1001=AXIS2_PLACEMENT_3D('',#1510,#1246,#1247);
#1002=AXIS2_PLACEMENT_3D('',#1511,#1248,#1249);
#1003=AXIS2_PLACEMENT_3D('',#1513,#1251,#1252);
#1004=AXIS2_PLACEMENT_3D('',#1515,#1253,#1254);
#1005=AXIS2_PLACEMENT_3D('',#1517,#1256,#1257);
#1006=AXIS2_PLACEMENT_3D('',#1519,#1258,#1259);
#1007=AXIS2_PLACEMENT_3D('',#1520,#1260,#1261);
#1008=AXIS2_PLACEMENT_3D('',#1522,#1263,#1264);
#1009=AXIS2_PLACEMENT_3D('',#1524,#1265,#1266);
#1010=AXIS2_PLACEMENT_3D('',#1526,#1268,#1269);
#1011=AXIS2_PLACEMENT_3D('',#1528,#1270,#1271);
#1012=AXIS2_PLACEMENT_3D('',#1529,#1272,#1273);
#1013=AXIS2_PLACEMENT_3D('',#1531,#1275,#1276);
#1014=AXIS2_PLACEMENT_3D('',#1532,#1277,#1278);
#1015=AXIS2_PLACEMENT_3D('',#1533,#1279,#1280);
#1016=AXIS2_PLACEMENT_3D('',#1534,#1281,#1282);
#1017=AXIS2_PLACEMENT_3D('',#1535,#1283,#1284);
#1018=AXIS2_PLACEMENT_3D('',#1536,#1285,#1286);
#1019=AXIS2_PLACEMENT_3D('',#1537,#1287,#1288);
#1020=AXIS2_PLACEMENT_3D('',#1546,#1293,#1294);
#1021=AXIS2_PLACEMENT_3D('',#1552,#1298,#1299);
#1022=AXIS2_PLACEMENT_3D('',#1558,#1303,#1304);
#1023=AXIS2_PLACEMENT_3D('',#1561,#1307,#1308);
#1024=AXIS2_PLACEMENT_3D('',#1562,#1309,#1310);
#1025=DIRECTION('axis',(0.,0.,1.));
#1026=DIRECTION('refdir',(1.,0.,0.));
#1027=DIRECTION('center_axis',(-1.,0.,0.));
#1028=DIRECTION('ref_axis',(0.,1.,0.));
#1029=DIRECTION('center_axis',(-1.,0.,0.));
#1030=DIRECTION('ref_axis',(0.,1.,0.));
#1031=DIRECTION('',(-1.,0.,0.));
#1032=DIRECTION('center_axis',(1.,0.,0.));
#1033=DIRECTION('ref_axis',(0.,1.,0.));
#1034=DIRECTION('center_axis',(-1.,0.,0.));
#1035=DIRECTION('ref_axis',(0.,1.,0.));
#1036=DIRECTION('center_axis',(-1.,0.,0.));
#1037=DIRECTION('ref_axis',(0.,1.,0.));
#1038=DIRECTION('',(-1.,0.,0.));
#1039=DIRECTION('center_axis',(1.,0.,0.));
#1040=DIRECTION('ref_axis',(0.,1.,0.));
#1041=DIRECTION('center_axis',(-1.,0.,0.));
#1042=DIRECTION('ref_axis',(0.,1.,0.));
#1043=DIRECTION('center_axis',(-1.,0.,0.));
#1044=DIRECTION('ref_axis',(0.,1.,0.));
#1045=DIRECTION('',(-1.,0.,0.));
#1046=DIRECTION('center_axis',(1.,0.,0.));
#1047=DIRECTION('ref_axis',(0.,1.,0.));
#1048=DIRECTION('center_axis',(-1.,0.,0.));
#1049=DIRECTION('ref_axis',(0.,1.,0.));
#1050=DIRECTION('center_axis',(-1.,0.,0.));
#1051=DIRECTION('ref_axis',(0.,1.,0.));
#1052=DIRECTION('',(-1.,0.,0.));
#1053=DIRECTION('center_axis',(1.,0.,0.));
#1054=DIRECTION('ref_axis',(0.,1.,0.));
#1055=DIRECTION('center_axis',(1.,0.,0.));
#1056=DIRECTION('ref_axis',(0.,1.,0.));
#1057=DIRECTION('',(0.,1.,1.36056743213867E-16));
#1058=DIRECTION('center_axis',(1.,0.,0.));
#1059=DIRECTION('ref_axis',(0.,0.,-1.));
#1060=DIRECTION('',(0.,0.,-1.));
#1061=DIRECTION('center_axis',(1.,0.,0.));
#1062=DIRECTION('ref_axis',(0.,0.,1.));
#1063=DIRECTION('',(0.,-1.,-1.36056743213867E-16));
#1064=DIRECTION('center_axis',(-1.,0.,0.));
#1065=DIRECTION('ref_axis',(0.,0.,1.));
#1066=DIRECTION('center_axis',(-1.,0.,0.));
#1067=DIRECTION('ref_axis',(0.,0.,-1.));
#1068=DIRECTION('center_axis',(-1.,0.,0.));
#1069=DIRECTION('ref_axis',(0.,0.,1.));
#1070=DIRECTION('center_axis',(-1.,0.,0.));
#1071=DIRECTION('ref_axis',(0.,0.,-1.));
#1072=DIRECTION('center_axis',(-1.,0.,0.));
#1073=DIRECTION('ref_axis',(0.,0.,-1.));
#1074=DIRECTION('center_axis',(0.,1.36056743213867E-16,-1.));
#1075=DIRECTION('ref_axis',(0.,1.,1.36056743213867E-16));
#1076=DIRECTION('',(-1.,0.,0.));
#1077=DIRECTION('',(0.,-1.,-1.36056743213867E-16));
#1078=DIRECTION('',(-1.,0.,0.));
#1079=DIRECTION('center_axis',(-1.,0.,0.));
#1080=DIRECTION('ref_axis',(0.,0.,1.));
#1081=DIRECTION('',(-1.,0.,0.));
#1082=DIRECTION('center_axis',(1.,0.,0.));
#1083=DIRECTION('ref_axis',(0.,0.,-1.));
#1084=DIRECTION('center_axis',(1.,0.,0.));
#1085=DIRECTION('ref_axis',(0.,1.,0.));
#1086=DIRECTION('',(0.,0.,1.));
#1087=DIRECTION('center_axis',(1.,0.,0.));
#1088=DIRECTION('ref_axis',(0.,0.,1.));
#1089=DIRECTION('',(0.,1.,1.36056743213867E-16));
#1090=DIRECTION('center_axis',(-1.,0.,0.));
#1091=DIRECTION('ref_axis',(0.,0.,1.));
#1092=DIRECTION('center_axis',(-1.,0.,0.));
#1093=DIRECTION('ref_axis',(0.,0.,-1.));
#1094=DIRECTION('center_axis',(-1.,0.,0.));
#1095=DIRECTION('ref_axis',(0.,0.,1.));
#1096=DIRECTION('',(0.,-1.,-1.36056743213867E-16));
#1097=DIRECTION('center_axis',(1.,0.,0.));
#1098=DIRECTION('ref_axis',(0.,0.,-1.));
#1099=DIRECTION('center_axis',(-1.,0.,0.));
#1100=DIRECTION('ref_axis',(0.,0.,-1.));
#1101=DIRECTION('center_axis',(-1.,0.,0.));
#1102=DIRECTION('ref_axis',(0.,0.,-1.));
#1103=DIRECTION('center_axis',(0.,1.36056743213867E-16,-1.));
#1104=DIRECTION('ref_axis',(0.,1.,1.36056743213867E-16));
#1105=DIRECTION('',(1.,0.,0.));
#1106=DIRECTION('',(0.,-1.,-1.36056743213867E-16));
#1107=DIRECTION('',(-1.,0.,0.));
#1108=DIRECTION('center_axis',(-1.,0.,0.));
#1109=DIRECTION('ref_axis',(0.,0.,1.));
#1110=DIRECTION('',(-1.,0.,0.));
#1111=DIRECTION('center_axis',(1.,0.,0.));
#1112=DIRECTION('ref_axis',(0.,0.,-1.));
#1113=DIRECTION('center_axis',(1.,0.,0.));
#1114=DIRECTION('ref_axis',(0.,1.,0.));
#1115=DIRECTION('center_axis',(-1.,0.,0.));
#1116=DIRECTION('ref_axis',(0.,0.,-1.));
#1117=DIRECTION('center_axis',(1.,0.,0.));
#1118=DIRECTION('ref_axis',(0.,1.,0.));
#1119=DIRECTION('center_axis',(-1.,0.,0.));
#1120=DIRECTION('ref_axis',(0.,0.,-1.));
#1121=DIRECTION('center_axis',(1.,0.,0.));
#1122=DIRECTION('ref_axis',(0.,1.,0.));
#1123=DIRECTION('center_axis',(-1.,0.,0.));
#1124=DIRECTION('ref_axis',(0.,0.,-1.));
#1125=DIRECTION('center_axis',(1.,0.,0.));
#1126=DIRECTION('ref_axis',(0.,1.,0.));
#1127=DIRECTION('center_axis',(-1.,0.,0.));
#1128=DIRECTION('ref_axis',(0.,0.,-1.));
#1129=DIRECTION('center_axis',(1.,0.,0.));
#1130=DIRECTION('ref_axis',(0.,-1.22464679914735E-16,1.));
#1131=DIRECTION('',(0.,0.,-1.));
#1132=DIRECTION('center_axis',(1.,0.,0.));
#1133=DIRECTION('ref_axis',(0.,0.,-1.));
#1134=DIRECTION('center_axis',(1.,0.,0.));
#1135=DIRECTION('ref_axis',(0.,0.,-1.));
#1136=DIRECTION('center_axis',(1.,0.,0.));
#1137=DIRECTION('ref_axis',(0.,0.,-1.));
#1138=DIRECTION('center_axis',(1.,0.,0.));
#1139=DIRECTION('ref_axis',(0.,0.,-1.));
#1140=DIRECTION('',(0.,-1.,-1.36056743213867E-16));
#1141=DIRECTION('center_axis',(1.,0.,0.));
#1142=DIRECTION('ref_axis',(0.,0.,-1.));
#1143=DIRECTION('',(0.,0.,-1.));
#1144=DIRECTION('center_axis',(1.,0.,0.));
#1145=DIRECTION('ref_axis',(0.,0.,-1.));
#1146=DIRECTION('center_axis',(1.,0.,0.));
#1147=DIRECTION('ref_axis',(0.,0.,-1.));
#1148=DIRECTION('center_axis',(1.,0.,0.));
#1149=DIRECTION('ref_axis',(0.,0.,-1.));
#1150=DIRECTION('',(0.,-1.,-1.36056743213867E-16));
#1151=DIRECTION('center_axis',(1.,0.,0.));
#1152=DIRECTION('ref_axis',(0.,0.,-1.));
#1153=DIRECTION('center_axis',(1.,0.,0.));
#1154=DIRECTION('ref_axis',(0.,0.,-1.));
#1155=DIRECTION('center_axis',(1.,0.,0.));
#1156=DIRECTION('ref_axis',(0.,0.,-1.));
#1157=DIRECTION('center_axis',(1.,0.,0.));
#1158=DIRECTION('ref_axis',(0.,0.,-1.));
#1159=DIRECTION('center_axis',(1.,0.,0.));
#1160=DIRECTION('ref_axis',(0.,0.,-1.));
#1161=DIRECTION('center_axis',(1.,0.,0.));
#1162=DIRECTION('ref_axis',(0.,0.,-1.));
#1163=DIRECTION('center_axis',(1.,0.,0.));
#1164=DIRECTION('ref_axis',(0.,0.,-1.));
#1165=DIRECTION('center_axis',(1.,0.,0.));
#1166=DIRECTION('ref_axis',(0.,0.,-1.));
#1167=DIRECTION('center_axis',(1.,0.,0.));
#1168=DIRECTION('ref_axis',(0.,0.,-1.));
#1169=DIRECTION('center_axis',(1.,0.,0.));
#1170=DIRECTION('ref_axis',(0.,0.,-1.));
#1171=DIRECTION('center_axis',(-1.,0.,0.));
#1172=DIRECTION('ref_axis',(0.,0.,1.));
#1173=DIRECTION('center_axis',(1.,0.,0.));
#1174=DIRECTION('ref_axis',(0.,0.,-1.));
#1175=DIRECTION('',(1.,0.,0.));
#1176=DIRECTION('',(-1.,0.,0.));
#1177=DIRECTION('',(-1.,0.,0.));
#1178=DIRECTION('center_axis',(1.,0.,0.));
#1179=DIRECTION('ref_axis',(0.,1.,0.));
#1180=DIRECTION('center_axis',(1.,0.,0.));
#1181=DIRECTION('ref_axis',(0.,0.,-1.));
#1182=DIRECTION('center_axis',(-1.,0.,0.));
#1183=DIRECTION('ref_axis',(0.,0.,1.));
#1184=DIRECTION('center_axis',(1.,0.,0.));
#1185=DIRECTION('ref_axis',(0.,0.,-1.));
#1186=DIRECTION('',(-1.,0.,0.));
#1187=DIRECTION('center_axis',(1.,0.,0.));
#1188=DIRECTION('ref_axis',(0.,0.,-1.));
#1189=DIRECTION('center_axis',(1.,0.,0.));
#1190=DIRECTION('ref_axis',(0.,1.,0.));
#1191=DIRECTION('center_axis',(1.,0.,0.));
#1192=DIRECTION('ref_axis',(0.,0.,-1.));
#1193=DIRECTION('center_axis',(-1.,0.,0.));
#1194=DIRECTION('ref_axis',(0.,0.,1.));
#1195=DIRECTION('',(-0.707106781186548,-8.65956056235493E-17,-0.707106781186547));
#1196=DIRECTION('center_axis',(0.,1.,0.));
#1197=DIRECTION('ref_axis',(0.,0.,1.));
#1198=DIRECTION('',(-1.,0.,0.));
#1199=DIRECTION('',(-1.,0.,0.));
#1200=DIRECTION('center_axis',(0.,1.36056743213867E-16,-1.));
#1201=DIRECTION('ref_axis',(0.,1.,1.36056743213867E-16));
#1202=DIRECTION('',(-1.,0.,0.));
#1203=DIRECTION('',(1.,0.,0.));
#1204=DIRECTION('center_axis',(0.,1.,0.));
#1205=DIRECTION('ref_axis',(0.,0.,1.));
#1206=DIRECTION('',(-1.,0.,0.));
#1207=DIRECTION('',(-1.,0.,0.));
#1208=DIRECTION('center_axis',(0.,1.36056743213867E-16,-1.));
#1209=DIRECTION('ref_axis',(0.,1.,1.36056743213867E-16));
#1210=DIRECTION('',(-1.,0.,0.));
#1211=DIRECTION('',(-1.,0.,0.));
#1212=DIRECTION('center_axis',(-1.,0.,0.));
#1213=DIRECTION('ref_axis',(0.,0.,1.));
#1214=DIRECTION('',(-1.,0.,0.));
#1215=DIRECTION('center_axis',(-1.,0.,0.));
#1216=DIRECTION('ref_axis',(0.,0.,1.));
#1217=DIRECTION('',(-1.,0.,0.));
#1218=DIRECTION('center_axis',(-1.,0.,0.));
#1219=DIRECTION('ref_axis',(0.,0.,1.));
#1220=DIRECTION('',(-1.,0.,0.));
#1221=DIRECTION('center_axis',(-1.,0.,0.));
#1222=DIRECTION('ref_axis',(0.,0.,1.));
#1223=DIRECTION('',(-1.,0.,0.));
#1224=DIRECTION('center_axis',(-1.,0.,0.));
#1225=DIRECTION('ref_axis',(0.,0.,1.));
#1226=DIRECTION('',(-1.,0.,0.));
#1227=DIRECTION('center_axis',(1.,0.,0.));
#1228=DIRECTION('ref_axis',(0.,0.,-1.));
#1229=DIRECTION('center_axis',(1.,0.,0.));
#1230=DIRECTION('ref_axis',(0.,0.,-1.));
#1231=DIRECTION('',(1.,0.,0.));
#1232=DIRECTION('center_axis',(-1.,0.,0.));
#1233=DIRECTION('ref_axis',(0.,0.,1.));
#1234=DIRECTION('center_axis',(1.,0.,0.));
#1235=DIRECTION('ref_axis',(0.,0.,-1.));
#1236=DIRECTION('center_axis',(1.,0.,0.));
#1237=DIRECTION('ref_axis',(0.,0.,-1.));
#1238=DIRECTION('',(1.,0.,0.));
#1239=DIRECTION('center_axis',(1.,0.,0.));
#1240=DIRECTION('ref_axis',(0.,0.,-1.));
#1241=DIRECTION('center_axis',(1.,0.,0.));
#1242=DIRECTION('ref_axis',(0.,0.,-1.));
#1243=DIRECTION('',(1.,0.,0.));
#1244=DIRECTION('center_axis',(-1.,0.,0.));
#1245=DIRECTION('ref_axis',(0.,0.,1.));
#1246=DIRECTION('center_axis',(1.,0.,0.));
#1247=DIRECTION('ref_axis',(0.,0.,-1.));
#1248=DIRECTION('center_axis',(1.,0.,0.));
#1249=DIRECTION('ref_axis',(0.,0.,-1.));
#1250=DIRECTION('',(1.,0.,0.));
#1251=DIRECTION('center_axis',(1.,0.,0.));
#1252=DIRECTION('ref_axis',(0.,0.,-1.));
#1253=DIRECTION('center_axis',(1.,0.,0.));
#1254=DIRECTION('ref_axis',(0.,0.,-1.));
#1255=DIRECTION('',(1.,0.,0.));
#1256=DIRECTION('center_axis',(-1.,0.,0.));
#1257=DIRECTION('ref_axis',(0.,0.,1.));
#1258=DIRECTION('center_axis',(1.,0.,0.));
#1259=DIRECTION('ref_axis',(0.,0.,-1.));
#1260=DIRECTION('center_axis',(1.,0.,0.));
#1261=DIRECTION('ref_axis',(0.,0.,-1.));
#1262=DIRECTION('',(1.,0.,0.));
#1263=DIRECTION('center_axis',(1.,0.,0.));
#1264=DIRECTION('ref_axis',(0.,0.,-1.));
#1265=DIRECTION('center_axis',(1.,0.,0.));
#1266=DIRECTION('ref_axis',(0.,0.,-1.));
#1267=DIRECTION('',(1.,0.,0.));
#1268=DIRECTION('center_axis',(-1.,0.,0.));
#1269=DIRECTION('ref_axis',(0.,0.,1.));
#1270=DIRECTION('center_axis',(1.,0.,0.));
#1271=DIRECTION('ref_axis',(0.,0.,-1.));
#1272=DIRECTION('center_axis',(1.,0.,0.));
#1273=DIRECTION('ref_axis',(0.,0.,-1.));
#1274=DIRECTION('',(1.,0.,0.));
#1275=DIRECTION('center_axis',(-1.,0.,0.));
#1276=DIRECTION('ref_axis',(0.,0.,1.));
#1277=DIRECTION('center_axis',(-1.,0.,0.));
#1278=DIRECTION('ref_axis',(0.,0.,1.));
#1279=DIRECTION('center_axis',(1.,0.,0.));
#1280=DIRECTION('ref_axis',(0.,0.,-1.));
#1281=DIRECTION('center_axis',(-1.,0.,0.));
#1282=DIRECTION('ref_axis',(0.,0.,1.));
#1283=DIRECTION('center_axis',(-1.,0.,0.));
#1284=DIRECTION('ref_axis',(0.,0.,1.));
#1285=DIRECTION('center_axis',(1.,0.,0.));
#1286=DIRECTION('ref_axis',(0.,0.,-1.));
#1287=DIRECTION('center_axis',(0.,1.,0.));
#1288=DIRECTION('ref_axis',(0.,0.,-1.));
#1289=DIRECTION('',(0.,0.,1.));
#1290=DIRECTION('',(-1.,0.,0.));
#1291=DIRECTION('',(0.,0.,-1.));
#1292=DIRECTION('',(-1.,0.,0.));
#1293=DIRECTION('center_axis',(0.,0.,1.));
#1294=DIRECTION('ref_axis',(0.,1.,0.));
#1295=DIRECTION('',(0.,-1.,0.));
#1296=DIRECTION('',(0.,1.,0.));
#1297=DIRECTION('',(-1.,0.,0.));
#1298=DIRECTION('center_axis',(0.,-1.,0.));
#1299=DIRECTION('ref_axis',(0.,0.,1.));
#1300=DIRECTION('',(0.,0.,-1.));
#1301=DIRECTION('',(0.,0.,1.));
#1302=DIRECTION('',(-1.,0.,0.));
#1303=DIRECTION('center_axis',(0.,0.,-1.));
#1304=DIRECTION('ref_axis',(0.,-1.,0.));
#1305=DIRECTION('',(0.,1.,0.));
#1306=DIRECTION('',(0.,-1.,0.));
#1307=DIRECTION('center_axis',(-1.,0.,0.));
#1308=DIRECTION('ref_axis',(0.,0.,1.));
#1309=DIRECTION('center_axis',(-1.,0.,0.));
#1310=DIRECTION('ref_axis',(0.,-1.,0.));
#1311=CARTESIAN_POINT('',(0.,0.,0.));
#1312=CARTESIAN_POINT('Origin',(-0.0591089838486225,-0.007,4.33680868994202E-19));
#1313=CARTESIAN_POINT('',(-0.0591089838486225,-0.00875,2.19367679143415E-19));
#1314=CARTESIAN_POINT('Origin',(-0.0591089838486225,-0.007,4.33680868994202E-19));
#1315=CARTESIAN_POINT('',(-0.0606089838486225,-0.00875,2.19367679143415E-19));
#1316=CARTESIAN_POINT('',(-0.0591089838486225,-0.00875,6.47994058844989E-19));
#1317=CARTESIAN_POINT('Origin',(-0.0606089838486225,-0.007,4.33680868994202E-19));
#1318=CARTESIAN_POINT('Origin',(-0.0591089838486225,0.,0.007));
#1319=CARTESIAN_POINT('',(-0.0591089838486225,-0.00175,0.007));
#1320=CARTESIAN_POINT('Origin',(-0.0591089838486225,0.,0.007));
#1321=CARTESIAN_POINT('',(-0.0606089838486225,-0.00175,0.007));
#1322=CARTESIAN_POINT('',(-0.0591089838486225,-0.00175,0.007));
#1323=CARTESIAN_POINT('Origin',(-0.0606089838486225,0.,0.007));
#1324=CARTESIAN_POINT('Origin',(-0.0591089838486225,0.007,-1.3010426069826E-18));
#1325=CARTESIAN_POINT('',(-0.0591089838486225,0.00525,-1.51535579683339E-18));
#1326=CARTESIAN_POINT('Origin',(-0.0591089838486225,0.007,-1.3010426069826E-18));
#1327=CARTESIAN_POINT('',(-0.0606089838486225,0.00525,-1.51535579683339E-18));
#1328=CARTESIAN_POINT('',(-0.0591089838486225,0.00525,-1.08672941713181E-18));
#1329=CARTESIAN_POINT('Origin',(-0.0606089838486225,0.007,-1.3010426069826E-18));
#1330=CARTESIAN_POINT('Origin',(-0.0591089838486225,-8.67361737988404E-19,
-0.007));
#1331=CARTESIAN_POINT('',(-0.0591089838486225,-0.00175,-0.007));
#1332=CARTESIAN_POINT('Origin',(-0.0591089838486225,-8.67361737988404E-19,
-0.007));
#1333=CARTESIAN_POINT('',(-0.0606089838486225,-0.00175,-0.007));
#1334=CARTESIAN_POINT('',(-0.0591089838486225,-0.00175,-0.007));
#1335=CARTESIAN_POINT('Origin',(-0.0606089838486225,-8.67361737988404E-19,
-0.007));
#1336=CARTESIAN_POINT('Origin',(-0.0559924017645318,0.,0.));
#1337=CARTESIAN_POINT('',(-0.0559924017645318,-0.022,-0.0091));
#1338=CARTESIAN_POINT('',(-0.0559924017645318,-0.009027181176868,-0.0091));
#1339=CARTESIAN_POINT('',(-0.0559924017645318,2.3537816575999E-18,-0.0091));
#1340=CARTESIAN_POINT('',(-0.0559924017645318,-0.0255,-0.0056));
#1341=CARTESIAN_POINT('Origin',(-0.0559924017645318,-0.022,-0.0056));
#1342=CARTESIAN_POINT('',(-0.0559924017645318,-0.0255,0.0056));
#1343=CARTESIAN_POINT('',(-0.0559924017645318,-0.0255,-1.7347234759768E-18));
#1344=CARTESIAN_POINT('',(-0.0559924017645318,-0.022,0.0091));
#1345=CARTESIAN_POINT('Origin',(-0.0559924017645318,-0.022,0.0056));
#1346=CARTESIAN_POINT('',(-0.0559924017645318,-0.00902718117686801,0.0091));
#1347=CARTESIAN_POINT('',(-0.0559924017645318,-2.3537816575999E-18,0.0091));
#1348=CARTESIAN_POINT('',(-0.0559924017645318,-0.00698878542725265,0.00975483870967742));
#1349=CARTESIAN_POINT('Origin',(-0.0559924017645318,-0.00902718117686801,
0.0126));
#1350=CARTESIAN_POINT('',(-0.0559924017645318,-0.00698878542725265,-0.00975483870967742));
#1351=CARTESIAN_POINT('Origin',(-0.0559924017645318,0.,7.34788079488412E-19));
#1352=CARTESIAN_POINT('Origin',(-0.0559924017645318,-0.009027181176868,
-0.0126));
#1353=CARTESIAN_POINT('',(-0.0559924017645318,-0.022,0.00885));
#1354=CARTESIAN_POINT('Origin',(-0.0559924017645318,-0.022,0.0056));
#1355=CARTESIAN_POINT('',(-0.0559924017645318,-0.022,-0.00235));
#1356=CARTESIAN_POINT('Origin',(-0.0559924017645318,-0.022,-0.0056));
#1357=CARTESIAN_POINT('Origin',(-0.0534904017645318,3.46944695195361E-18,
-0.0091));
#1358=CARTESIAN_POINT('',(-0.0534924017645318,-0.009027181176868,-0.0091));
#1359=CARTESIAN_POINT('',(-0.0534904017645318,-0.009027181176868,-0.0091));
#1360=CARTESIAN_POINT('',(-0.0534924017645318,-0.022,-0.0091));
#1361=CARTESIAN_POINT('',(-0.0534924017645318,3.46944695195361E-18,-0.0091));
#1362=CARTESIAN_POINT('',(-0.0574924017645318,-0.022,-0.0091));
#1363=CARTESIAN_POINT('Origin',(0.300553328349657,-0.009027181176868,-0.0126));
#1364=CARTESIAN_POINT('',(-0.0534924017645318,-0.00698878542725265,-0.00975483870967742));
#1365=CARTESIAN_POINT('',(0.300553328349657,-0.00698878542725265,-0.00975483870967742));
#1366=CARTESIAN_POINT('Origin',(-0.0534924017645318,-0.009027181176868,
-0.0126));
#1367=CARTESIAN_POINT('Origin',(-0.0559924017645318,0.,0.));
#1368=CARTESIAN_POINT('',(-0.0559924017645318,0.0255,-0.0056));
#1369=CARTESIAN_POINT('',(-0.0559924017645318,0.0255,0.0056));
#1370=CARTESIAN_POINT('',(-0.0559924017645318,0.0255,1.7347234759768E-18));
#1371=CARTESIAN_POINT('',(-0.0559924017645318,0.022,-0.0091));
#1372=CARTESIAN_POINT('Origin',(-0.0559924017645318,0.022,-0.0056));
#1373=CARTESIAN_POINT('',(-0.0559924017645318,0.009027181176868,-0.0091));
#1374=CARTESIAN_POINT('',(-0.0559924017645318,2.3537816575999E-18,-0.0091));
#1375=CARTESIAN_POINT('',(-0.0559924017645318,0.00698878542725265,-0.00975483870967742));
#1376=CARTESIAN_POINT('Origin',(-0.0559924017645318,0.009027181176868,-0.0126));
#1377=CARTESIAN_POINT('',(-0.0559924017645318,0.00698878542725265,0.00975483870967742));
#1378=CARTESIAN_POINT('Origin',(-0.0559924017645318,0.,7.34788079488412E-19));
#1379=CARTESIAN_POINT('',(-0.0559924017645318,0.009027181176868,0.0091));
#1380=CARTESIAN_POINT('Origin',(-0.0559924017645318,0.009027181176868,0.0126));
#1381=CARTESIAN_POINT('',(-0.0559924017645318,0.022,0.0091));
#1382=CARTESIAN_POINT('',(-0.0559924017645318,-2.3537816575999E-18,0.0091));
#1383=CARTESIAN_POINT('Origin',(-0.0559924017645318,0.022,0.0056));
#1384=CARTESIAN_POINT('',(-0.0559924017645318,0.022,-0.00235));
#1385=CARTESIAN_POINT('Origin',(-0.0559924017645318,0.022,-0.0056));
#1386=CARTESIAN_POINT('',(-0.0559924017645318,0.022,0.00885));
#1387=CARTESIAN_POINT('Origin',(-0.0559924017645318,0.022,0.0056));
#1388=CARTESIAN_POINT('Origin',(-0.0534904017645318,-3.46944695195361E-18,
0.0091));
#1389=CARTESIAN_POINT('',(-0.0534924017645318,0.009027181176868,0.0091));
#1390=CARTESIAN_POINT('',(-0.0534924017645318,0.009027181176868,0.0091));
#1391=CARTESIAN_POINT('',(-0.0534924017645318,0.022,0.0091));
#1392=CARTESIAN_POINT('',(-0.0534924017645318,-3.46944695195361E-18,0.0091));
#1393=CARTESIAN_POINT('',(-0.0574924017645318,0.022,0.0091));
#1394=CARTESIAN_POINT('Origin',(0.300553328349657,0.009027181176868,0.0126));
#1395=CARTESIAN_POINT('',(-0.0534924017645318,0.00698878542725265,0.00975483870967742));
#1396=CARTESIAN_POINT('',(0.300553328349657,0.00698878542725265,0.00975483870967742));
#1397=CARTESIAN_POINT('Origin',(-0.0534924017645318,0.009027181176868,0.0126));
#1398=CARTESIAN_POINT('Origin',(-0.0591089838486225,0.,0.));
#1399=CARTESIAN_POINT('',(-0.0591089838486225,-8.67361737988404E-19,-0.00975));
#1400=CARTESIAN_POINT('Origin',(-0.0591089838486225,-8.67361737988404E-19,
-0.007));
#1401=CARTESIAN_POINT('Origin',(-0.0591089838486225,0.,0.));
#1402=CARTESIAN_POINT('',(-0.0591089838486225,-0.007,-0.00275));
#1403=CARTESIAN_POINT('Origin',(-0.0591089838486225,-0.007,4.33680868994202E-19));
#1404=CARTESIAN_POINT('Origin',(-0.0591089838486225,0.,0.));
#1405=CARTESIAN_POINT('',(-0.0591089838486225,0.007,-0.00275));
#1406=CARTESIAN_POINT('Origin',(-0.0591089838486225,0.007,-1.3010426069826E-18));
#1407=CARTESIAN_POINT('Origin',(-0.0591089838486225,0.,0.));
#1408=CARTESIAN_POINT('',(-0.0591089838486225,0.,0.00425));
#1409=CARTESIAN_POINT('Origin',(-0.0591089838486225,0.,0.007));
#1410=CARTESIAN_POINT('Origin',(-0.0534924017645318,-0.013,-0.009));
#1411=CARTESIAN_POINT('',(-0.0534924017645318,-0.0255,0.0056));
#1412=CARTESIAN_POINT('',(-0.0534924017645318,-0.0255,-0.0056));
#1413=CARTESIAN_POINT('',(-0.0534924017645318,-0.0255,-3.46944695195361E-18));
#1414=CARTESIAN_POINT('Origin',(-0.0534924017645318,-0.022,-0.0056));
#1415=CARTESIAN_POINT('',(-0.0534924017645318,-1.46957615897682E-18,-0.012));
#1416=CARTESIAN_POINT('Origin',(-0.0534924017645318,0.,7.34788079488412E-19));
#1417=CARTESIAN_POINT('',(-0.0534924017645318,0.00698878542725265,-0.00975483870967742));
#1418=CARTESIAN_POINT('Origin',(-0.0534924017645318,0.,7.34788079488412E-19));
#1419=CARTESIAN_POINT('',(-0.0534924017645318,0.009027181176868,-0.0091));
#1420=CARTESIAN_POINT('Origin',(-0.0534924017645318,0.009027181176868,-0.0126));
#1421=CARTESIAN_POINT('',(-0.0534924017645318,0.022,-0.0091));
#1422=CARTESIAN_POINT('',(-0.0534924017645318,3.46944695195361E-18,-0.0091));
#1423=CARTESIAN_POINT('',(-0.0534924017645318,0.0255,-0.0056));
#1424=CARTESIAN_POINT('Origin',(-0.0534924017645318,0.022,-0.0056));
#1425=CARTESIAN_POINT('',(-0.0534924017645318,0.0255,0.0056));
#1426=CARTESIAN_POINT('',(-0.0534924017645318,0.0255,3.46944695195361E-18));
#1427=CARTESIAN_POINT('Origin',(-0.0534924017645318,0.022,0.0056));
#1428=CARTESIAN_POINT('',(-0.0534924017645318,-0.00698878542725265,0.00975483870967742));
#1429=CARTESIAN_POINT('Origin',(-0.0534924017645318,0.,7.34788079488412E-19));
#1430=CARTESIAN_POINT('',(-0.0534924017645318,-0.00902718117686801,0.0091));
#1431=CARTESIAN_POINT('Origin',(-0.0534924017645318,-0.00902718117686801,
0.0126));
#1432=CARTESIAN_POINT('',(-0.0534924017645318,-0.022,0.0091));
#1433=CARTESIAN_POINT('',(-0.0534924017645318,-3.46944695195361E-18,0.0091));
#1434=CARTESIAN_POINT('Origin',(-0.0534924017645318,-0.022,0.0056));
#1435=CARTESIAN_POINT('',(-0.0534924017645318,0.,-0.00275));
#1436=CARTESIAN_POINT('Origin',(-0.0534924017645318,0.,1.68388934882761E-19));
#1437=CARTESIAN_POINT('',(-0.0534924017645318,-0.007,-0.00275));
#1438=CARTESIAN_POINT('Origin',(-0.0534924017645318,-0.007,4.33680868994202E-19));
#1439=CARTESIAN_POINT('',(-0.0534924017645318,0.007,-0.00275));
#1440=CARTESIAN_POINT('Origin',(-0.0534924017645318,0.007,-1.3010426069826E-18));
#1441=CARTESIAN_POINT('',(-0.0534924017645318,0.022,-0.00435));
#1442=CARTESIAN_POINT('Origin',(-0.0534924017645318,0.022,-0.0056));
#1443=CARTESIAN_POINT('',(-0.0534924017645318,-0.022,0.00685));
#1444=CARTESIAN_POINT('Origin',(-0.0534924017645318,-0.022,0.0056));
#1445=CARTESIAN_POINT('',(-0.0534924017645318,-0.022,-0.00435));
#1446=CARTESIAN_POINT('Origin',(-0.0534924017645318,-0.022,-0.0056));
#1447=CARTESIAN_POINT('',(-0.0534924017645318,0.022,0.00685));
#1448=CARTESIAN_POINT('Origin',(-0.0534924017645318,0.022,0.0056));
#1449=CARTESIAN_POINT('',(-0.0534924017645318,-8.67361737988404E-19,-0.00975));
#1450=CARTESIAN_POINT('Origin',(-0.0534924017645318,-8.67361737988404E-19,
-0.007));
#1451=CARTESIAN_POINT('',(-0.0534924017645318,0.,0.00425));
#1452=CARTESIAN_POINT('Origin',(-0.0534924017645318,0.,0.007));
#1453=CARTESIAN_POINT('Origin',(0.300553328349657,0.,7.34788079488412E-19));
#1454=CARTESIAN_POINT('',(-0.0616089838486225,0.,-0.012));
#1455=CARTESIAN_POINT('Origin',(-0.0616089838486225,0.,7.34788079488412E-19));
#1456=CARTESIAN_POINT('',(0.300553328349657,-1.46957615897682E-18,-0.012));
#1457=CARTESIAN_POINT('',(0.300553328349657,-0.00698878542725265,0.00975483870967742));
#1458=CARTESIAN_POINT('',(0.300553328349657,0.00698878542725265,-0.00975483870967742));
#1459=CARTESIAN_POINT('Origin',(-0.0616089838486225,0.,0.));
#1460=CARTESIAN_POINT('',(-0.0616089838486225,0.,-0.0105));
#1461=CARTESIAN_POINT('Origin',(-0.0616089838486225,0.,6.12323399573677E-19));
#1462=CARTESIAN_POINT('Origin',(-0.0606089838486225,0.,6.12323399573677E-19));
#1463=CARTESIAN_POINT('',(-0.0606089838486225,0.,-0.01));
#1464=CARTESIAN_POINT('Origin',(-0.0606089838486225,0.,6.12323399573677E-19));
#1465=CARTESIAN_POINT('',(-0.0611089838486225,0.,-0.01));
#1466=CARTESIAN_POINT('',(-0.0606089838486225,-1.22464679914735E-18,-0.01));
#1467=CARTESIAN_POINT('Origin',(-0.0611089838486225,0.,6.12323399573677E-19));
#1468=CARTESIAN_POINT('Origin',(-0.0606089838486225,0.,0.));
#1469=CARTESIAN_POINT('',(-0.0606089838486225,-3.36777869765522E-19,-0.00275));
#1470=CARTESIAN_POINT('Origin',(-0.0606089838486225,0.,1.68388934882761E-19));
#1471=CARTESIAN_POINT('Origin',(-0.0616089838486225,0.,6.12323399573677E-19));
#1472=CARTESIAN_POINT('',(-0.0616089838486225,-1.28587913910472E-18,-0.0105));
#1473=CARTESIAN_POINT('Origin',(-0.0534904017645318,0.0255,3.46944695195361E-18));
#1474=CARTESIAN_POINT('',(-0.0534924017645318,0.0255,0.0056));
#1475=CARTESIAN_POINT('',(-0.0534904017645318,0.0255,-0.0056));
#1476=CARTESIAN_POINT('Origin',(-0.0534904017645318,-3.46944695195361E-18,
0.0091));
#1477=CARTESIAN_POINT('',(-0.0534904017645318,-0.022,0.0091));
#1478=CARTESIAN_POINT('',(-0.0574924017645318,-0.00902718117686801,0.0091));
#1479=CARTESIAN_POINT('Origin',(-0.0534904017645318,-0.0255,-3.46944695195361E-18));
#1480=CARTESIAN_POINT('',(-0.0534924017645318,-0.0255,-0.0056));
#1481=CARTESIAN_POINT('',(-0.0534904017645318,-0.0255,0.0056));
#1482=CARTESIAN_POINT('Origin',(-0.0534904017645318,3.46944695195361E-18,
-0.0091));
#1483=CARTESIAN_POINT('',(-0.0534904017645318,0.022,-0.0091));
#1484=CARTESIAN_POINT('',(-0.0534904017645318,0.009027181176868,-0.0091));
#1485=CARTESIAN_POINT('Origin',(-0.0416089838486225,0.007,-1.3010426069826E-18));
#1486=CARTESIAN_POINT('',(-0.0416089838486225,0.007,-0.00275));
#1487=CARTESIAN_POINT('Origin',(-0.0416089838486225,0.,1.68388934882761E-19));
#1488=CARTESIAN_POINT('',(-0.0416089838486225,-3.36777869765522E-19,-0.00275));
#1489=CARTESIAN_POINT('Origin',(-0.0416089838486225,-8.67361737988404E-19,
-0.007));
#1490=CARTESIAN_POINT('',(-0.0416089838486225,-1.20413960775393E-18,-0.00975));
#1491=CARTESIAN_POINT('Origin',(-0.0416089838486225,-0.007,4.33680868994202E-19));
#1492=CARTESIAN_POINT('',(-0.0416089838486225,-0.007,-0.00275));
#1493=CARTESIAN_POINT('Origin',(-0.0416089838486225,0.,0.007));
#1494=CARTESIAN_POINT('',(-0.0416089838486225,-3.36777869765522E-19,0.00425));
#1495=CARTESIAN_POINT('Origin',(-0.0666089838486225,-0.022,-0.0056));
#1496=CARTESIAN_POINT('',(-0.0554924017645318,-0.022,-0.00435));
#1497=CARTESIAN_POINT('Origin',(-0.0554924017645318,-0.022,-0.0056));
#1498=CARTESIAN_POINT('',(-0.0666089838486225,-0.022,-0.00435));
#1499=CARTESIAN_POINT('Origin',(-0.0554924017645318,-0.01875,-0.0056));
#1500=CARTESIAN_POINT('',(-0.0554924017645318,-0.022,-0.00235));
#1501=CARTESIAN_POINT('Origin',(-0.0554924017645318,-0.022,-0.0056));
#1502=CARTESIAN_POINT('Origin',(-0.0666089838486225,-0.022,-0.0056));
#1503=CARTESIAN_POINT('',(-0.0666089838486225,-0.022,-0.00235));
#1504=CARTESIAN_POINT('Origin',(-0.0666089838486225,-0.022,0.0056));
#1505=CARTESIAN_POINT('',(-0.0554924017645318,-0.022,0.00685));
#1506=CARTESIAN_POINT('Origin',(-0.0554924017645318,-0.022,0.0056));
#1507=CARTESIAN_POINT('',(-0.0666089838486225,-0.022,0.00685));
#1508=CARTESIAN_POINT('Origin',(-0.0554924017645318,-0.01875,0.0056));
#1509=CARTESIAN_POINT('',(-0.0554924017645318,-0.022,0.00885));
#1510=CARTESIAN_POINT('Origin',(-0.0554924017645318,-0.022,0.0056));
#1511=CARTESIAN_POINT('Origin',(-0.0666089838486225,-0.022,0.0056));
#1512=CARTESIAN_POINT('',(-0.0666089838486225,-0.022,0.00885));
#1513=CARTESIAN_POINT('Origin',(-0.0666089838486225,0.022,0.0056));
#1514=CARTESIAN_POINT('',(-0.0554924017645318,0.022,0.00685));
#1515=CARTESIAN_POINT('Origin',(-0.0554924017645318,0.022,0.0056));
#1516=CARTESIAN_POINT('',(-0.0666089838486225,0.022,0.00685));
#1517=CARTESIAN_POINT('Origin',(-0.0554924017645318,0.02525,0.0056));
#1518=CARTESIAN_POINT('',(-0.0554924017645318,0.022,0.00885));
#1519=CARTESIAN_POINT('Origin',(-0.0554924017645318,0.022,0.0056));
#1520=CARTESIAN_POINT('Origin',(-0.0666089838486225,0.022,0.0056));
#1521=CARTESIAN_POINT('',(-0.0666089838486225,0.022,0.00885));
#1522=CARTESIAN_POINT('Origin',(-0.0666089838486225,0.022,-0.0056));
#1523=CARTESIAN_POINT('',(-0.0554924017645318,0.022,-0.00435));
#1524=CARTESIAN_POINT('Origin',(-0.0554924017645318,0.022,-0.0056));
#1525=CARTESIAN_POINT('',(-0.0666089838486225,0.022,-0.00435));
#1526=CARTESIAN_POINT('Origin',(-0.0554924017645318,0.02525,-0.0056));
#1527=CARTESIAN_POINT('',(-0.0554924017645318,0.022,-0.00235));
#1528=CARTESIAN_POINT('Origin',(-0.0554924017645318,0.022,-0.0056));
#1529=CARTESIAN_POINT('Origin',(-0.0666089838486225,0.022,-0.0056));
#1530=CARTESIAN_POINT('',(-0.0666089838486225,0.022,-0.00235));
#1531=CARTESIAN_POINT('Origin',(0.300553328349657,0.009027181176868,-0.0126));
#1532=CARTESIAN_POINT('Origin',(0.300553328349657,-0.00902718117686801,
0.0126));
#1533=CARTESIAN_POINT('Origin',(-0.0534904017645318,-0.022,-0.0056));
#1534=CARTESIAN_POINT('Origin',(-0.0534904017645318,-0.022,0.0056));
#1535=CARTESIAN_POINT('Origin',(-0.0534904017645318,0.022,-0.0056));
#1536=CARTESIAN_POINT('Origin',(-0.0534904017645318,0.022,0.0056));
#1537=CARTESIAN_POINT('Origin',(-0.0559924017645318,0.0255,0.));
#1538=CARTESIAN_POINT('',(-0.0559924017645318,0.0255,-0.00180449157564526));
#1539=CARTESIAN_POINT('',(-0.0559924017645318,0.0255,0.));
#1540=CARTESIAN_POINT('',(-0.0559924017645318,0.0255,-0.00180449157564526));
#1541=CARTESIAN_POINT('',(-0.0599924017645318,0.0255,-0.00180449157564526));
#1542=CARTESIAN_POINT('',(-0.0559924017645318,0.0255,-0.00180449157564526));
#1543=CARTESIAN_POINT('',(-0.0599924017645318,0.0255,0.));
#1544=CARTESIAN_POINT('',(-0.0599924017645318,0.0255,-0.00180449157564526));
#1545=CARTESIAN_POINT('',(-0.0559924017645318,0.0255,0.));
#1546=CARTESIAN_POINT('Origin',(-0.0559924017645318,0.012,0.));
#1547=CARTESIAN_POINT('',(-0.0559924017645318,0.012,0.));
#1548=CARTESIAN_POINT('',(-0.0559924017645318,0.0255,0.));
#1549=CARTESIAN_POINT('',(-0.0599924017645318,0.012,0.));
#1550=CARTESIAN_POINT('',(-0.0599924017645318,0.0255,0.));
#1551=CARTESIAN_POINT('',(-0.0559924017645318,0.012,0.));
#1552=CARTESIAN_POINT('Origin',(-0.0559924017645318,0.012,-0.00180449157564526));
#1553=CARTESIAN_POINT('',(-0.0559924017645318,0.012,-0.00180449157564526));
#1554=CARTESIAN_POINT('',(-0.0559924017645318,0.012,0.));
#1555=CARTESIAN_POINT('',(-0.0599924017645318,0.012,-0.00180449157564526));
#1556=CARTESIAN_POINT('',(-0.0599924017645318,0.012,0.));
#1557=CARTESIAN_POINT('',(-0.0559924017645318,0.012,-0.00180449157564526));
#1558=CARTESIAN_POINT('Origin',(-0.0559924017645318,0.0255,-0.00180449157564526));
#1559=CARTESIAN_POINT('',(-0.0559924017645318,0.012,-0.00180449157564526));
#1560=CARTESIAN_POINT('',(-0.0599924017645318,0.012,-0.00180449157564526));
#1561=CARTESIAN_POINT('Origin',(-0.0599924017645318,0.01875,-0.000902245787822629));
#1562=CARTESIAN_POINT('Origin',(-0.0559924017645318,0.01875,-0.000902245787822629));
#1563=UNCERTAINTY_MEASURE_WITH_UNIT(LENGTH_MEASURE(1.E-5),#1567,
'DISTANCE_ACCURACY_VALUE',
'Maximum model space distance between geometric entities at asserted c
onnectivities');
#1564=UNCERTAINTY_MEASURE_WITH_UNIT(LENGTH_MEASURE(1.E-5),#1567,
'DISTANCE_ACCURACY_VALUE',
'Maximum model space distance between geometric entities at asserted c
onnectivities');
#1565=(
GEOMETRIC_REPRESENTATION_CONTEXT(3)
GLOBAL_UNCERTAINTY_ASSIGNED_CONTEXT((#1563))
GLOBAL_UNIT_ASSIGNED_CONTEXT((#1567,#1568,#1569))
REPRESENTATION_CONTEXT('','3D')
);
#1566=(
GEOMETRIC_REPRESENTATION_CONTEXT(3)
GLOBAL_UNCERTAINTY_ASSIGNED_CONTEXT((#1564))
GLOBAL_UNIT_ASSIGNED_CONTEXT((#1567,#1568,#1569))
REPRESENTATION_CONTEXT('','3D')
);
#1567=(
LENGTH_UNIT()
NAMED_UNIT(*)
SI_UNIT($,.METRE.)
);
#1568=(
NAMED_UNIT(*)
PLANE_ANGLE_UNIT()
SI_UNIT($,.RADIAN.)
);
#1569=(
NAMED_UNIT(*)
SI_UNIT($,.STERADIAN.)
SOLID_ANGLE_UNIT()
);
#1570=SHAPE_DEFINITION_REPRESENTATION(#1571,#1572);
#1571=PRODUCT_DEFINITION_SHAPE('',$,#1574);
#1572=SHAPE_REPRESENTATION('',(#912),#1565);
#1573=PRODUCT_DEFINITION_CONTEXT('part definition',#1578,'design');
#1574=PRODUCT_DEFINITION('Interface_ARM100','sointerface v3',#1575,#1573);
#1575=PRODUCT_DEFINITION_FORMATION('',$,#1580);
#1576=PRODUCT_RELATED_PRODUCT_CATEGORY('sointerface v3',
'sointerface v3',(#1580));
#1577=APPLICATION_PROTOCOL_DEFINITION('international standard',
'automotive_design',2009,#1578);
#1578=APPLICATION_CONTEXT(
'Core Data for Automotive Mechanical Design Process');
#1579=PRODUCT_CONTEXT('part definition',#1578,'mechanical');
#1580=PRODUCT('Interface_ARM100','sointerface v3','STEP AP242',(#1579));
#1581=PRESENTATION_STYLE_ASSIGNMENT((#1583));
#1582=PRESENTATION_STYLE_ASSIGNMENT((#1584));
#1583=SURFACE_STYLE_USAGE(.BOTH.,#1585);
#1584=SURFACE_STYLE_USAGE(.BOTH.,#1586);
#1585=SURFACE_SIDE_STYLE('',(#1587));
#1586=SURFACE_SIDE_STYLE('',(#1588));
#1587=SURFACE_STYLE_FILL_AREA(#1589);
#1588=SURFACE_STYLE_FILL_AREA(#1590);
#1589=FILL_AREA_STYLE('Steel - Satin',(#1591));
#1590=FILL_AREA_STYLE('Opaque(230,230,230)',(#1592));
#1591=FILL_AREA_STYLE_COLOUR('Steel - Satin',#1593);
#1592=FILL_AREA_STYLE_COLOUR('Opaque(230,230,230)',#1594);
#1593=COLOUR_RGB('Steel - Satin',0.627450980392157,0.627450980392157,0.627450980392157);
#1594=COLOUR_RGB('Opaque(230,230,230)',0.901960784313726,0.901960784313726,
0.901960784313726);
ENDSEC;
END-ISO-10303-21;
