ISO-10303-21;
HEADER;
/* Generated by software containing ST-Developer
 * from STEP Tools, Inc. (www.steptools.com) 
 */

FILE_DESCRIPTION(
/* description */ (''),
/* implementation_level */ '2;1');

FILE_NAME(
/* name */ 'pole.step',
/* time_stamp */ '2026-01-25T16:22:40+09:00',
/* author */ (''),
/* organization */ (''),
/* preprocessor_version */ 'ST-DEVELOPER v20.1',
/* originating_system */ 'Autodesk Translation Framework v14.24.0.0',
/* authorisation */ '');

FILE_SCHEMA (('AUTOMOTIVE_DESIGN { 1 0 10303 214 3 1 1 }'));
ENDSEC;

DATA;
#10=MECHANICAL_DESIGN_GEOMETRIC_PRESENTATION_REPRESENTATION('',(#13),#759);
#11=SHAPE_REPRESENTATION_RELATIONSHIP('SRR','None',#766,#12);
#12=ADVANCED_BREP_SHAPE_REPRESENTATION('',(#14),#758);
#13=STYLED_ITEM('',(#775),#14);
#14=MANIFOLD_SOLID_BREP('Body1',#459);
#15=CYLINDRICAL_SURFACE('',#486,2.);
#16=CYLINDRICAL_SURFACE('',#489,2.);
#17=CYLINDRICAL_SURFACE('',#490,2.);
#18=CYLINDRICAL_SURFACE('',#491,2.);
#19=CYLINDRICAL_SURFACE('',#506,2.);
#20=CYLINDRICAL_SURFACE('',#507,2.);
#21=CYLINDRICAL_SURFACE('',#508,2.);
#22=CYLINDRICAL_SURFACE('',#509,2.);
#23=FACE_BOUND('',#78,.T.);
#24=FACE_BOUND('',#79,.T.);
#25=FACE_BOUND('',#83,.T.);
#26=FACE_BOUND('',#84,.T.);
#27=FACE_BOUND('',#86,.T.);
#28=FACE_BOUND('',#87,.T.);
#29=FACE_BOUND('',#88,.T.);
#30=FACE_BOUND('',#89,.T.);
#31=FACE_BOUND('',#95,.T.);
#32=FACE_BOUND('',#96,.T.);
#33=FACE_BOUND('',#99,.T.);
#34=FACE_BOUND('',#100,.T.);
#35=FACE_BOUND('',#101,.T.);
#36=FACE_BOUND('',#102,.T.);
#37=FACE_BOUND('',#107,.T.);
#38=FACE_BOUND('',#108,.T.);
#39=CIRCLE('',#474,2.);
#40=CIRCLE('',#475,2.);
#41=CIRCLE('',#479,2.);
#42=CIRCLE('',#480,2.);
#43=CIRCLE('',#482,2.);
#44=CIRCLE('',#483,2.);
#45=CIRCLE('',#484,2.);
#46=CIRCLE('',#485,2.);
#47=CIRCLE('',#487,2.);
#48=CIRCLE('',#488,2.);
#49=CIRCLE('',#492,2.);
#50=CIRCLE('',#493,2.);
#51=CIRCLE('',#495,2.);
#52=CIRCLE('',#498,2.);
#53=CIRCLE('',#499,2.);
#54=CIRCLE('',#504,2.);
#55=FACE_OUTER_BOUND('',#77,.T.);
#56=FACE_OUTER_BOUND('',#80,.T.);
#57=FACE_OUTER_BOUND('',#81,.T.);
#58=FACE_OUTER_BOUND('',#82,.T.);
#59=FACE_OUTER_BOUND('',#85,.T.);
#60=FACE_OUTER_BOUND('',#90,.T.);
#61=FACE_OUTER_BOUND('',#91,.T.);
#62=FACE_OUTER_BOUND('',#92,.T.);
#63=FACE_OUTER_BOUND('',#93,.T.);
#64=FACE_OUTER_BOUND('',#94,.T.);
#65=FACE_OUTER_BOUND('',#97,.T.);
#66=FACE_OUTER_BOUND('',#98,.T.);
#67=FACE_OUTER_BOUND('',#103,.T.);
#68=FACE_OUTER_BOUND('',#104,.T.);
#69=FACE_OUTER_BOUND('',#105,.T.);
#70=FACE_OUTER_BOUND('',#106,.T.);
#71=FACE_OUTER_BOUND('',#109,.T.);
#72=FACE_OUTER_BOUND('',#110,.T.);
#73=FACE_OUTER_BOUND('',#111,.T.);
#74=FACE_OUTER_BOUND('',#112,.T.);
#75=FACE_OUTER_BOUND('',#113,.T.);
#76=FACE_OUTER_BOUND('',#114,.T.);
#77=EDGE_LOOP('',(#303,#304,#305,#306));
#78=EDGE_LOOP('',(#307));
#79=EDGE_LOOP('',(#308));
#80=EDGE_LOOP('',(#309,#310,#311,#312));
#81=EDGE_LOOP('',(#313,#314,#315,#316,#317,#318,#319,#320,#321,#322,#323,
#324));
#82=EDGE_LOOP('',(#325,#326,#327,#328));
#83=EDGE_LOOP('',(#329));
#84=EDGE_LOOP('',(#330));
#85=EDGE_LOOP('',(#331,#332,#333,#334));
#86=EDGE_LOOP('',(#335));
#87=EDGE_LOOP('',(#336));
#88=EDGE_LOOP('',(#337));
#89=EDGE_LOOP('',(#338));
#90=EDGE_LOOP('',(#339,#340,#341,#342));
#91=EDGE_LOOP('',(#343,#344,#345,#346));
#92=EDGE_LOOP('',(#347,#348,#349,#350));
#93=EDGE_LOOP('',(#351,#352,#353,#354));
#94=EDGE_LOOP('',(#355,#356,#357,#358));
#95=EDGE_LOOP('',(#359));
#96=EDGE_LOOP('',(#360));
#97=EDGE_LOOP('',(#361,#362,#363,#364));
#98=EDGE_LOOP('',(#365,#366,#367,#368));
#99=EDGE_LOOP('',(#369));
#100=EDGE_LOOP('',(#370));
#101=EDGE_LOOP('',(#371));
#102=EDGE_LOOP('',(#372));
#103=EDGE_LOOP('',(#373,#374,#375,#376));
#104=EDGE_LOOP('',(#377,#378,#379,#380));
#105=EDGE_LOOP('',(#381,#382,#383,#384));
#106=EDGE_LOOP('',(#385,#386,#387,#388));
#107=EDGE_LOOP('',(#389));
#108=EDGE_LOOP('',(#390));
#109=EDGE_LOOP('',(#391,#392,#393,#394));
#110=EDGE_LOOP('',(#395,#396,#397,#398));
#111=EDGE_LOOP('',(#399,#400,#401,#402));
#112=EDGE_LOOP('',(#403,#404,#405,#406));
#113=EDGE_LOOP('',(#407,#408,#409,#410));
#114=EDGE_LOOP('',(#411,#412,#413,#414,#415,#416,#417,#418,#419,#420,#421,
#422));
#115=LINE('',#637,#159);
#116=LINE('',#639,#160);
#117=LINE('',#641,#161);
#118=LINE('',#642,#162);
#119=LINE('',#649,#163);
#120=LINE('',#651,#164);
#121=LINE('',#652,#165);
#122=LINE('',#655,#166);
#123=LINE('',#657,#167);
#124=LINE('',#659,#168);
#125=LINE('',#661,#169);
#126=LINE('',#663,#170);
#127=LINE('',#665,#171);
#128=LINE('',#667,#172);
#129=LINE('',#669,#173);
#130=LINE('',#671,#174);
#131=LINE('',#672,#175);
#132=LINE('',#675,#176);
#133=LINE('',#677,#177);
#134=LINE('',#678,#178);
#135=LINE('',#685,#179);
#136=LINE('',#686,#180);
#137=LINE('',#699,#181);
#138=LINE('',#702,#182);
#139=LINE('',#704,#183);
#140=LINE('',#709,#184);
#141=LINE('',#713,#185);
#142=LINE('',#715,#186);
#143=LINE('',#716,#187);
#144=LINE('',#721,#188);
#145=LINE('',#722,#189);
#146=LINE('',#725,#190);
#147=LINE('',#726,#191);
#148=LINE('',#733,#192);
#149=LINE('',#734,#193);
#150=LINE('',#737,#194);
#151=LINE('',#738,#195);
#152=LINE('',#740,#196);
#153=LINE('',#742,#197);
#154=LINE('',#746,#198);
#155=LINE('',#748,#199);
#156=LINE('',#750,#200);
#157=LINE('',#752,#201);
#158=LINE('',#754,#202);
#159=VECTOR('',#515,10.);
#160=VECTOR('',#516,10.);
#161=VECTOR('',#517,10.);
#162=VECTOR('',#518,10.);
#163=VECTOR('',#525,10.);
#164=VECTOR('',#526,10.);
#165=VECTOR('',#527,10.);
#166=VECTOR('',#530,10.);
#167=VECTOR('',#531,10.);
#168=VECTOR('',#532,10.);
#169=VECTOR('',#533,10.);
#170=VECTOR('',#534,10.);
#171=VECTOR('',#535,10.);
#172=VECTOR('',#536,10.);
#173=VECTOR('',#537,10.);
#174=VECTOR('',#538,10.);
#175=VECTOR('',#539,10.);
#176=VECTOR('',#542,10.);
#177=VECTOR('',#543,10.);
#178=VECTOR('',#544,10.);
#179=VECTOR('',#551,10.);
#180=VECTOR('',#552,10.);
#181=VECTOR('',#565,2.);
#182=VECTOR('',#570,2.);
#183=VECTOR('',#573,2.);
#184=VECTOR('',#578,2.);
#185=VECTOR('',#583,10.);
#186=VECTOR('',#584,10.);
#187=VECTOR('',#585,10.);
#188=VECTOR('',#590,10.);
#189=VECTOR('',#591,10.);
#190=VECTOR('',#594,10.);
#191=VECTOR('',#595,10.);
#192=VECTOR('',#602,10.);
#193=VECTOR('',#603,10.);
#194=VECTOR('',#606,10.);
#195=VECTOR('',#607,10.);
#196=VECTOR('',#610,10.);
#197=VECTOR('',#613,10.);
#198=VECTOR('',#618,10.);
#199=VECTOR('',#621,2.);
#200=VECTOR('',#624,2.);
#201=VECTOR('',#627,2.);
#202=VECTOR('',#630,2.);
#203=VERTEX_POINT('',#635);
#204=VERTEX_POINT('',#636);
#205=VERTEX_POINT('',#638);
#206=VERTEX_POINT('',#640);
#207=VERTEX_POINT('',#643);
#208=VERTEX_POINT('',#645);
#209=VERTEX_POINT('',#648);
#210=VERTEX_POINT('',#650);
#211=VERTEX_POINT('',#654);
#212=VERTEX_POINT('',#656);
#213=VERTEX_POINT('',#658);
#214=VERTEX_POINT('',#660);
#215=VERTEX_POINT('',#662);
#216=VERTEX_POINT('',#664);
#217=VERTEX_POINT('',#666);
#218=VERTEX_POINT('',#668);
#219=VERTEX_POINT('',#670);
#220=VERTEX_POINT('',#674);
#221=VERTEX_POINT('',#676);
#222=VERTEX_POINT('',#679);
#223=VERTEX_POINT('',#681);
#224=VERTEX_POINT('',#684);
#225=VERTEX_POINT('',#687);
#226=VERTEX_POINT('',#689);
#227=VERTEX_POINT('',#691);
#228=VERTEX_POINT('',#693);
#229=VERTEX_POINT('',#696);
#230=VERTEX_POINT('',#698);
#231=VERTEX_POINT('',#706);
#232=VERTEX_POINT('',#708);
#233=VERTEX_POINT('',#712);
#234=VERTEX_POINT('',#714);
#235=VERTEX_POINT('',#717);
#236=VERTEX_POINT('',#720);
#237=VERTEX_POINT('',#724);
#238=VERTEX_POINT('',#727);
#239=VERTEX_POINT('',#729);
#240=VERTEX_POINT('',#732);
#241=VERTEX_POINT('',#736);
#242=VERTEX_POINT('',#743);
#243=EDGE_CURVE('',#203,#204,#115,.T.);
#244=EDGE_CURVE('',#205,#203,#116,.T.);
#245=EDGE_CURVE('',#206,#205,#117,.T.);
#246=EDGE_CURVE('',#204,#206,#118,.T.);
#247=EDGE_CURVE('',#207,#207,#39,.T.);
#248=EDGE_CURVE('',#208,#208,#40,.T.);
#249=EDGE_CURVE('',#203,#209,#119,.T.);
#250=EDGE_CURVE('',#210,#209,#120,.T.);
#251=EDGE_CURVE('',#205,#210,#121,.T.);
#252=EDGE_CURVE('',#204,#211,#122,.T.);
#253=EDGE_CURVE('',#212,#211,#123,.T.);
#254=EDGE_CURVE('',#213,#212,#124,.T.);
#255=EDGE_CURVE('',#214,#213,#125,.T.);
#256=EDGE_CURVE('',#215,#214,#126,.T.);
#257=EDGE_CURVE('',#216,#215,#127,.T.);
#258=EDGE_CURVE('',#216,#217,#128,.T.);
#259=EDGE_CURVE('',#217,#218,#129,.T.);
#260=EDGE_CURVE('',#219,#218,#130,.T.);
#261=EDGE_CURVE('',#209,#219,#131,.T.);
#262=EDGE_CURVE('',#220,#217,#132,.T.);
#263=EDGE_CURVE('',#221,#220,#133,.T.);
#264=EDGE_CURVE('',#218,#221,#134,.T.);
#265=EDGE_CURVE('',#222,#222,#41,.T.);
#266=EDGE_CURVE('',#223,#223,#42,.T.);
#267=EDGE_CURVE('',#219,#224,#135,.T.);
#268=EDGE_CURVE('',#224,#210,#136,.T.);
#269=EDGE_CURVE('',#225,#225,#43,.T.);
#270=EDGE_CURVE('',#226,#226,#44,.T.);
#271=EDGE_CURVE('',#227,#227,#45,.T.);
#272=EDGE_CURVE('',#228,#228,#46,.T.);
#273=EDGE_CURVE('',#229,#229,#47,.T.);
#274=EDGE_CURVE('',#229,#230,#137,.T.);
#275=EDGE_CURVE('',#230,#230,#48,.T.);
#276=EDGE_CURVE('',#207,#225,#138,.T.);
#277=EDGE_CURVE('',#222,#226,#139,.T.);
#278=EDGE_CURVE('',#231,#231,#49,.T.);
#279=EDGE_CURVE('',#231,#232,#140,.T.);
#280=EDGE_CURVE('',#232,#232,#50,.T.);
#281=EDGE_CURVE('',#233,#215,#141,.T.);
#282=EDGE_CURVE('',#234,#233,#142,.T.);
#283=EDGE_CURVE('',#234,#216,#143,.T.);
#284=EDGE_CURVE('',#235,#235,#51,.T.);
#285=EDGE_CURVE('',#236,#214,#144,.T.);
#286=EDGE_CURVE('',#236,#233,#145,.T.);
#287=EDGE_CURVE('',#213,#237,#146,.T.);
#288=EDGE_CURVE('',#237,#236,#147,.T.);
#289=EDGE_CURVE('',#238,#238,#52,.T.);
#290=EDGE_CURVE('',#239,#239,#53,.T.);
#291=EDGE_CURVE('',#240,#206,#148,.T.);
#292=EDGE_CURVE('',#240,#211,#149,.T.);
#293=EDGE_CURVE('',#212,#241,#150,.T.);
#294=EDGE_CURVE('',#237,#241,#151,.T.);
#295=EDGE_CURVE('',#220,#234,#152,.T.);
#296=EDGE_CURVE('',#241,#240,#153,.T.);
#297=EDGE_CURVE('',#242,#242,#54,.T.);
#298=EDGE_CURVE('',#221,#224,#154,.T.);
#299=EDGE_CURVE('',#238,#235,#155,.T.);
#300=EDGE_CURVE('',#239,#242,#156,.T.);
#301=EDGE_CURVE('',#208,#227,#157,.T.);
#302=EDGE_CURVE('',#223,#228,#158,.T.);
#303=ORIENTED_EDGE('',*,*,#243,.F.);
#304=ORIENTED_EDGE('',*,*,#244,.F.);
#305=ORIENTED_EDGE('',*,*,#245,.F.);
#306=ORIENTED_EDGE('',*,*,#246,.F.);
#307=ORIENTED_EDGE('',*,*,#247,.F.);
#308=ORIENTED_EDGE('',*,*,#248,.F.);
#309=ORIENTED_EDGE('',*,*,#244,.T.);
#310=ORIENTED_EDGE('',*,*,#249,.T.);
#311=ORIENTED_EDGE('',*,*,#250,.F.);
#312=ORIENTED_EDGE('',*,*,#251,.F.);
#313=ORIENTED_EDGE('',*,*,#243,.T.);
#314=ORIENTED_EDGE('',*,*,#252,.T.);
#315=ORIENTED_EDGE('',*,*,#253,.F.);
#316=ORIENTED_EDGE('',*,*,#254,.F.);
#317=ORIENTED_EDGE('',*,*,#255,.F.);
#318=ORIENTED_EDGE('',*,*,#256,.F.);
#319=ORIENTED_EDGE('',*,*,#257,.F.);
#320=ORIENTED_EDGE('',*,*,#258,.T.);
#321=ORIENTED_EDGE('',*,*,#259,.T.);
#322=ORIENTED_EDGE('',*,*,#260,.F.);
#323=ORIENTED_EDGE('',*,*,#261,.F.);
#324=ORIENTED_EDGE('',*,*,#249,.F.);
#325=ORIENTED_EDGE('',*,*,#259,.F.);
#326=ORIENTED_EDGE('',*,*,#262,.F.);
#327=ORIENTED_EDGE('',*,*,#263,.F.);
#328=ORIENTED_EDGE('',*,*,#264,.F.);
#329=ORIENTED_EDGE('',*,*,#265,.F.);
#330=ORIENTED_EDGE('',*,*,#266,.F.);
#331=ORIENTED_EDGE('',*,*,#261,.T.);
#332=ORIENTED_EDGE('',*,*,#267,.T.);
#333=ORIENTED_EDGE('',*,*,#268,.T.);
#334=ORIENTED_EDGE('',*,*,#250,.T.);
#335=ORIENTED_EDGE('',*,*,#269,.T.);
#336=ORIENTED_EDGE('',*,*,#270,.T.);
#337=ORIENTED_EDGE('',*,*,#271,.T.);
#338=ORIENTED_EDGE('',*,*,#272,.T.);
#339=ORIENTED_EDGE('',*,*,#273,.F.);
#340=ORIENTED_EDGE('',*,*,#274,.T.);
#341=ORIENTED_EDGE('',*,*,#275,.F.);
#342=ORIENTED_EDGE('',*,*,#274,.F.);
#343=ORIENTED_EDGE('',*,*,#247,.T.);
#344=ORIENTED_EDGE('',*,*,#276,.T.);
#345=ORIENTED_EDGE('',*,*,#269,.F.);
#346=ORIENTED_EDGE('',*,*,#276,.F.);
#347=ORIENTED_EDGE('',*,*,#265,.T.);
#348=ORIENTED_EDGE('',*,*,#277,.T.);
#349=ORIENTED_EDGE('',*,*,#270,.F.);
#350=ORIENTED_EDGE('',*,*,#277,.F.);
#351=ORIENTED_EDGE('',*,*,#278,.F.);
#352=ORIENTED_EDGE('',*,*,#279,.T.);
#353=ORIENTED_EDGE('',*,*,#280,.F.);
#354=ORIENTED_EDGE('',*,*,#279,.F.);
#355=ORIENTED_EDGE('',*,*,#257,.T.);
#356=ORIENTED_EDGE('',*,*,#281,.F.);
#357=ORIENTED_EDGE('',*,*,#282,.F.);
#358=ORIENTED_EDGE('',*,*,#283,.T.);
#359=ORIENTED_EDGE('',*,*,#280,.T.);
#360=ORIENTED_EDGE('',*,*,#284,.F.);
#361=ORIENTED_EDGE('',*,*,#256,.T.);
#362=ORIENTED_EDGE('',*,*,#285,.F.);
#363=ORIENTED_EDGE('',*,*,#286,.T.);
#364=ORIENTED_EDGE('',*,*,#281,.T.);
#365=ORIENTED_EDGE('',*,*,#255,.T.);
#366=ORIENTED_EDGE('',*,*,#287,.T.);
#367=ORIENTED_EDGE('',*,*,#288,.T.);
#368=ORIENTED_EDGE('',*,*,#285,.T.);
#369=ORIENTED_EDGE('',*,*,#273,.T.);
#370=ORIENTED_EDGE('',*,*,#278,.T.);
#371=ORIENTED_EDGE('',*,*,#289,.T.);
#372=ORIENTED_EDGE('',*,*,#290,.T.);
#373=ORIENTED_EDGE('',*,*,#252,.F.);
#374=ORIENTED_EDGE('',*,*,#246,.T.);
#375=ORIENTED_EDGE('',*,*,#291,.F.);
#376=ORIENTED_EDGE('',*,*,#292,.T.);
#377=ORIENTED_EDGE('',*,*,#254,.T.);
#378=ORIENTED_EDGE('',*,*,#293,.T.);
#379=ORIENTED_EDGE('',*,*,#294,.F.);
#380=ORIENTED_EDGE('',*,*,#287,.F.);
#381=ORIENTED_EDGE('',*,*,#258,.F.);
#382=ORIENTED_EDGE('',*,*,#283,.F.);
#383=ORIENTED_EDGE('',*,*,#295,.F.);
#384=ORIENTED_EDGE('',*,*,#262,.T.);
#385=ORIENTED_EDGE('',*,*,#253,.T.);
#386=ORIENTED_EDGE('',*,*,#292,.F.);
#387=ORIENTED_EDGE('',*,*,#296,.F.);
#388=ORIENTED_EDGE('',*,*,#293,.F.);
#389=ORIENTED_EDGE('',*,*,#275,.T.);
#390=ORIENTED_EDGE('',*,*,#297,.F.);
#391=ORIENTED_EDGE('',*,*,#264,.T.);
#392=ORIENTED_EDGE('',*,*,#298,.T.);
#393=ORIENTED_EDGE('',*,*,#267,.F.);
#394=ORIENTED_EDGE('',*,*,#260,.T.);
#395=ORIENTED_EDGE('',*,*,#289,.F.);
#396=ORIENTED_EDGE('',*,*,#299,.T.);
#397=ORIENTED_EDGE('',*,*,#284,.T.);
#398=ORIENTED_EDGE('',*,*,#299,.F.);
#399=ORIENTED_EDGE('',*,*,#290,.F.);
#400=ORIENTED_EDGE('',*,*,#300,.T.);
#401=ORIENTED_EDGE('',*,*,#297,.T.);
#402=ORIENTED_EDGE('',*,*,#300,.F.);
#403=ORIENTED_EDGE('',*,*,#248,.T.);
#404=ORIENTED_EDGE('',*,*,#301,.T.);
#405=ORIENTED_EDGE('',*,*,#271,.F.);
#406=ORIENTED_EDGE('',*,*,#301,.F.);
#407=ORIENTED_EDGE('',*,*,#266,.T.);
#408=ORIENTED_EDGE('',*,*,#302,.T.);
#409=ORIENTED_EDGE('',*,*,#272,.F.);
#410=ORIENTED_EDGE('',*,*,#302,.F.);
#411=ORIENTED_EDGE('',*,*,#245,.T.);
#412=ORIENTED_EDGE('',*,*,#251,.T.);
#413=ORIENTED_EDGE('',*,*,#268,.F.);
#414=ORIENTED_EDGE('',*,*,#298,.F.);
#415=ORIENTED_EDGE('',*,*,#263,.T.);
#416=ORIENTED_EDGE('',*,*,#295,.T.);
#417=ORIENTED_EDGE('',*,*,#282,.T.);
#418=ORIENTED_EDGE('',*,*,#286,.F.);
#419=ORIENTED_EDGE('',*,*,#288,.F.);
#420=ORIENTED_EDGE('',*,*,#294,.T.);
#421=ORIENTED_EDGE('',*,*,#296,.T.);
#422=ORIENTED_EDGE('',*,*,#291,.T.);
#423=PLANE('',#473);
#424=PLANE('',#476);
#425=PLANE('',#477);
#426=PLANE('',#478);
#427=PLANE('',#481);
#428=PLANE('',#494);
#429=PLANE('',#496);
#430=PLANE('',#497);
#431=PLANE('',#500);
#432=PLANE('',#501);
#433=PLANE('',#502);
#434=PLANE('',#503);
#435=PLANE('',#505);
#436=PLANE('',#510);
#437=ADVANCED_FACE('',(#55,#23,#24),#423,.F.);
#438=ADVANCED_FACE('',(#56),#424,.T.);
#439=ADVANCED_FACE('',(#57),#425,.F.);
#440=ADVANCED_FACE('',(#58,#25,#26),#426,.F.);
#441=ADVANCED_FACE('',(#59,#27,#28,#29,#30),#427,.T.);
#442=ADVANCED_FACE('',(#60),#15,.F.);
#443=ADVANCED_FACE('',(#61),#16,.F.);
#444=ADVANCED_FACE('',(#62),#17,.F.);
#445=ADVANCED_FACE('',(#63),#18,.F.);
#446=ADVANCED_FACE('',(#64,#31,#32),#428,.F.);
#447=ADVANCED_FACE('',(#65),#429,.T.);
#448=ADVANCED_FACE('',(#66,#33,#34,#35,#36),#430,.F.);
#449=ADVANCED_FACE('',(#67),#431,.F.);
#450=ADVANCED_FACE('',(#68),#432,.T.);
#451=ADVANCED_FACE('',(#69),#433,.F.);
#452=ADVANCED_FACE('',(#70,#37,#38),#434,.F.);
#453=ADVANCED_FACE('',(#71),#435,.T.);
#454=ADVANCED_FACE('',(#72),#19,.F.);
#455=ADVANCED_FACE('',(#73),#20,.F.);
#456=ADVANCED_FACE('',(#74),#21,.F.);
#457=ADVANCED_FACE('',(#75),#22,.F.);
#458=ADVANCED_FACE('',(#76),#436,.T.);
#459=CLOSED_SHELL('',(#437,#438,#439,#440,#441,#442,#443,#444,#445,#446,
#447,#448,#449,#450,#451,#452,#453,#454,#455,#456,#457,#458));
#460=DERIVED_UNIT_ELEMENT(#462,1.);
#461=DERIVED_UNIT_ELEMENT(#761,-3.);
#462=(
MASS_UNIT()
NAMED_UNIT(*)
SI_UNIT(.KILO.,.GRAM.)
);
#463=DERIVED_UNIT((#460,#461));
#464=MEASURE_REPRESENTATION_ITEM('density measure',
POSITIVE_RATIO_MEASURE(7850.),#463);
#465=PROPERTY_DEFINITION_REPRESENTATION(#470,#467);
#466=PROPERTY_DEFINITION_REPRESENTATION(#471,#468);
#467=REPRESENTATION('material name',(#469),#758);
#468=REPRESENTATION('density',(#464),#758);
#469=DESCRIPTIVE_REPRESENTATION_ITEM('Steel','Steel');
#470=PROPERTY_DEFINITION('material property','material name',#768);
#471=PROPERTY_DEFINITION('material property','density of part',#768);
#472=AXIS2_PLACEMENT_3D('',#633,#511,#512);
#473=AXIS2_PLACEMENT_3D('',#634,#513,#514);
#474=AXIS2_PLACEMENT_3D('',#644,#519,#520);
#475=AXIS2_PLACEMENT_3D('',#646,#521,#522);
#476=AXIS2_PLACEMENT_3D('',#647,#523,#524);
#477=AXIS2_PLACEMENT_3D('',#653,#528,#529);
#478=AXIS2_PLACEMENT_3D('',#673,#540,#541);
#479=AXIS2_PLACEMENT_3D('',#680,#545,#546);
#480=AXIS2_PLACEMENT_3D('',#682,#547,#548);
#481=AXIS2_PLACEMENT_3D('',#683,#549,#550);
#482=AXIS2_PLACEMENT_3D('',#688,#553,#554);
#483=AXIS2_PLACEMENT_3D('',#690,#555,#556);
#484=AXIS2_PLACEMENT_3D('',#692,#557,#558);
#485=AXIS2_PLACEMENT_3D('',#694,#559,#560);
#486=AXIS2_PLACEMENT_3D('',#695,#561,#562);
#487=AXIS2_PLACEMENT_3D('',#697,#563,#564);
#488=AXIS2_PLACEMENT_3D('',#700,#566,#567);
#489=AXIS2_PLACEMENT_3D('',#701,#568,#569);
#490=AXIS2_PLACEMENT_3D('',#703,#571,#572);
#491=AXIS2_PLACEMENT_3D('',#705,#574,#575);
#492=AXIS2_PLACEMENT_3D('',#707,#576,#577);
#493=AXIS2_PLACEMENT_3D('',#710,#579,#580);
#494=AXIS2_PLACEMENT_3D('',#711,#581,#582);
#495=AXIS2_PLACEMENT_3D('',#718,#586,#587);
#496=AXIS2_PLACEMENT_3D('',#719,#588,#589);
#497=AXIS2_PLACEMENT_3D('',#723,#592,#593);
#498=AXIS2_PLACEMENT_3D('',#728,#596,#597);
#499=AXIS2_PLACEMENT_3D('',#730,#598,#599);
#500=AXIS2_PLACEMENT_3D('',#731,#600,#601);
#501=AXIS2_PLACEMENT_3D('',#735,#604,#605);
#502=AXIS2_PLACEMENT_3D('',#739,#608,#609);
#503=AXIS2_PLACEMENT_3D('',#741,#611,#612);
#504=AXIS2_PLACEMENT_3D('',#744,#614,#615);
#505=AXIS2_PLACEMENT_3D('',#745,#616,#617);
#506=AXIS2_PLACEMENT_3D('',#747,#619,#620);
#507=AXIS2_PLACEMENT_3D('',#749,#622,#623);
#508=AXIS2_PLACEMENT_3D('',#751,#625,#626);
#509=AXIS2_PLACEMENT_3D('',#753,#628,#629);
#510=AXIS2_PLACEMENT_3D('',#755,#631,#632);
#511=DIRECTION('axis',(0.,0.,1.));
#512=DIRECTION('refdir',(1.,0.,0.));
#513=DIRECTION('center_axis',(0.,0.,1.));
#514=DIRECTION('ref_axis',(1.,0.,0.));
#515=DIRECTION('',(-1.,0.,0.));
#516=DIRECTION('',(0.,1.,0.));
#517=DIRECTION('',(1.,0.,0.));
#518=DIRECTION('',(0.,-1.,0.));
#519=DIRECTION('center_axis',(0.,0.,-1.));
#520=DIRECTION('ref_axis',(1.,0.,0.));
#521=DIRECTION('center_axis',(0.,0.,-1.));
#522=DIRECTION('ref_axis',(1.,0.,0.));
#523=DIRECTION('center_axis',(1.,0.,0.));
#524=DIRECTION('ref_axis',(0.,1.,0.));
#525=DIRECTION('',(0.,0.,1.));
#526=DIRECTION('',(0.,1.,0.));
#527=DIRECTION('',(0.,0.,1.));
#528=DIRECTION('center_axis',(0.,-1.,0.));
#529=DIRECTION('ref_axis',(1.,0.,0.));
#530=DIRECTION('',(0.,0.,-1.));
#531=DIRECTION('',(-1.,0.,0.));
#532=DIRECTION('',(0.,0.,1.));
#533=DIRECTION('',(1.,0.,0.));
#534=DIRECTION('',(0.,0.,-1.));
#535=DIRECTION('',(-1.,0.,0.));
#536=DIRECTION('',(0.,0.,1.));
#537=DIRECTION('',(-1.,0.,0.));
#538=DIRECTION('',(0.,0.,-1.));
#539=DIRECTION('',(-1.,0.,0.));
#540=DIRECTION('center_axis',(0.,0.,1.));
#541=DIRECTION('ref_axis',(1.,0.,0.));
#542=DIRECTION('',(0.,1.,0.));
#543=DIRECTION('',(1.,0.,0.));
#544=DIRECTION('',(0.,-1.,0.));
#545=DIRECTION('center_axis',(0.,0.,-1.));
#546=DIRECTION('ref_axis',(1.,0.,0.));
#547=DIRECTION('center_axis',(0.,0.,-1.));
#548=DIRECTION('ref_axis',(1.,0.,0.));
#549=DIRECTION('center_axis',(0.,0.,1.));
#550=DIRECTION('ref_axis',(1.,0.,0.));
#551=DIRECTION('',(0.,-1.,0.));
#552=DIRECTION('',(1.,0.,0.));
#553=DIRECTION('center_axis',(0.,0.,-1.));
#554=DIRECTION('ref_axis',(1.,0.,0.));
#555=DIRECTION('center_axis',(0.,0.,-1.));
#556=DIRECTION('ref_axis',(1.,0.,0.));
#557=DIRECTION('center_axis',(0.,0.,-1.));
#558=DIRECTION('ref_axis',(1.,0.,0.));
#559=DIRECTION('center_axis',(0.,0.,-1.));
#560=DIRECTION('ref_axis',(1.,0.,0.));
#561=DIRECTION('center_axis',(0.,0.,1.));
#562=DIRECTION('ref_axis',(1.,0.,0.));
#563=DIRECTION('center_axis',(0.,0.,1.));
#564=DIRECTION('ref_axis',(1.,0.,0.));
#565=DIRECTION('',(0.,0.,1.));
#566=DIRECTION('center_axis',(0.,0.,-1.));
#567=DIRECTION('ref_axis',(1.,0.,0.));
#568=DIRECTION('center_axis',(0.,0.,1.));
#569=DIRECTION('ref_axis',(1.,0.,0.));
#570=DIRECTION('',(0.,0.,1.));
#571=DIRECTION('center_axis',(0.,0.,1.));
#572=DIRECTION('ref_axis',(1.,0.,0.));
#573=DIRECTION('',(0.,0.,1.));
#574=DIRECTION('center_axis',(0.,0.,1.));
#575=DIRECTION('ref_axis',(1.,0.,0.));
#576=DIRECTION('center_axis',(0.,0.,1.));
#577=DIRECTION('ref_axis',(1.,0.,0.));
#578=DIRECTION('',(0.,0.,1.));
#579=DIRECTION('center_axis',(0.,0.,-1.));
#580=DIRECTION('ref_axis',(1.,0.,0.));
#581=DIRECTION('center_axis',(0.,0.,-1.));
#582=DIRECTION('ref_axis',(-1.,0.,0.));
#583=DIRECTION('',(0.,1.,0.));
#584=DIRECTION('',(-1.,0.,0.));
#585=DIRECTION('',(0.,1.,0.));
#586=DIRECTION('center_axis',(0.,0.,1.));
#587=DIRECTION('ref_axis',(1.,0.,0.));
#588=DIRECTION('center_axis',(-1.,0.,0.));
#589=DIRECTION('ref_axis',(0.,-1.,0.));
#590=DIRECTION('',(0.,1.,0.));
#591=DIRECTION('',(0.,0.,1.));
#592=DIRECTION('center_axis',(0.,0.,1.));
#593=DIRECTION('ref_axis',(1.,0.,0.));
#594=DIRECTION('',(0.,-1.,0.));
#595=DIRECTION('',(-1.,0.,0.));
#596=DIRECTION('center_axis',(0.,0.,1.));
#597=DIRECTION('ref_axis',(1.,0.,0.));
#598=DIRECTION('center_axis',(0.,0.,1.));
#599=DIRECTION('ref_axis',(1.,0.,0.));
#600=DIRECTION('center_axis',(-1.,0.,0.));
#601=DIRECTION('ref_axis',(0.,0.,1.));
#602=DIRECTION('',(0.,0.,1.));
#603=DIRECTION('',(0.,1.,0.));
#604=DIRECTION('center_axis',(1.,0.,0.));
#605=DIRECTION('ref_axis',(0.,1.,0.));
#606=DIRECTION('',(0.,-1.,0.));
#607=DIRECTION('',(0.,0.,1.));
#608=DIRECTION('center_axis',(1.,0.,0.));
#609=DIRECTION('ref_axis',(0.,0.,-1.));
#610=DIRECTION('',(0.,0.,-1.));
#611=DIRECTION('center_axis',(0.,0.,-1.));
#612=DIRECTION('ref_axis',(-1.,0.,0.));
#613=DIRECTION('',(-1.,0.,0.));
#614=DIRECTION('center_axis',(0.,0.,1.));
#615=DIRECTION('ref_axis',(1.,0.,0.));
#616=DIRECTION('center_axis',(-1.,0.,0.));
#617=DIRECTION('ref_axis',(0.,-1.,0.));
#618=DIRECTION('',(0.,0.,1.));
#619=DIRECTION('center_axis',(0.,0.,1.));
#620=DIRECTION('ref_axis',(1.,0.,0.));
#621=DIRECTION('',(0.,0.,1.));
#622=DIRECTION('center_axis',(0.,0.,1.));
#623=DIRECTION('ref_axis',(1.,0.,0.));
#624=DIRECTION('',(0.,0.,1.));
#625=DIRECTION('center_axis',(0.,0.,1.));
#626=DIRECTION('ref_axis',(1.,0.,0.));
#627=DIRECTION('',(0.,0.,1.));
#628=DIRECTION('center_axis',(0.,0.,1.));
#629=DIRECTION('ref_axis',(1.,0.,0.));
#630=DIRECTION('',(0.,0.,1.));
#631=DIRECTION('center_axis',(0.,-1.,0.));
#632=DIRECTION('ref_axis',(1.,0.,0.));
#633=CARTESIAN_POINT('',(0.,0.,0.));
#634=CARTESIAN_POINT('Origin',(14.0741587381314,-4.58826890479736,45.));
#635=CARTESIAN_POINT('',(24.0741587381314,17.4117310952026,45.));
#636=CARTESIAN_POINT('',(14.0741587381314,17.4117310952026,45.));
#637=CARTESIAN_POINT('',(-5.92584126186858,17.4117310952026,45.));
#638=CARTESIAN_POINT('',(24.0741587381314,-4.58826890479736,45.));
#639=CARTESIAN_POINT('',(24.0741587381314,-4.58826890479736,45.));
#640=CARTESIAN_POINT('',(14.0741587381314,-4.58826890479736,45.));
#641=CARTESIAN_POINT('',(-5.92584126186858,-4.58826890479736,45.));
#642=CARTESIAN_POINT('',(14.0741587381314,-4.58826890479736,45.));
#643=CARTESIAN_POINT('',(17.0741587381314,13.9117310952026,45.));
#644=CARTESIAN_POINT('Origin',(19.0741587381314,13.9117310952026,45.));
#645=CARTESIAN_POINT('',(17.0741587381314,0.411731095202637,45.));
#646=CARTESIAN_POINT('Origin',(19.0741587381314,0.411731095202637,45.));
#647=CARTESIAN_POINT('Origin',(24.0741587381314,-4.58826890479736,0.));
#648=CARTESIAN_POINT('',(24.0741587381314,17.4117310952026,50.));
#649=CARTESIAN_POINT('',(24.0741587381314,17.4117310952026,0.));
#650=CARTESIAN_POINT('',(24.0741587381314,-4.58826890479736,50.));
#651=CARTESIAN_POINT('',(24.0741587381314,25.4117310952026,50.));
#652=CARTESIAN_POINT('',(24.0741587381314,-4.58826890479736,0.));
#653=CARTESIAN_POINT('Origin',(-25.9258412618686,17.4117310952026,0.));
#654=CARTESIAN_POINT('',(14.0741587381314,17.4117310952026,5.));
#655=CARTESIAN_POINT('',(14.0741587381314,17.4117310952026,17.5));
#656=CARTESIAN_POINT('',(24.0741587381314,17.4117310952026,5.));
#657=CARTESIAN_POINT('',(-0.925841261868579,17.4117310952026,5.));
#658=CARTESIAN_POINT('',(24.0741587381314,17.4117310952026,0.));
#659=CARTESIAN_POINT('',(24.0741587381314,17.4117310952026,0.));
#660=CARTESIAN_POINT('',(-25.9258412618686,17.4117310952026,0.));
#661=CARTESIAN_POINT('',(-13.4258412618686,17.4117310952026,0.));
#662=CARTESIAN_POINT('',(-25.9258412618686,17.4117310952026,5.));
#663=CARTESIAN_POINT('',(-25.9258412618686,17.4117310952026,0.));
#664=CARTESIAN_POINT('',(-15.9258412618686,17.4117310952026,5.));
#665=CARTESIAN_POINT('',(-20.9258412618686,17.4117310952026,5.));
#666=CARTESIAN_POINT('',(-15.9258412618686,17.4117310952026,45.));
#667=CARTESIAN_POINT('',(-15.9258412618686,17.4117310952026,17.5));
#668=CARTESIAN_POINT('',(-25.9258412618686,17.4117310952026,45.));
#669=CARTESIAN_POINT('',(-25.9258412618686,17.4117310952026,45.));
#670=CARTESIAN_POINT('',(-25.9258412618686,17.4117310952026,50.));
#671=CARTESIAN_POINT('',(-25.9258412618686,17.4117310952026,0.));
#672=CARTESIAN_POINT('',(-13.4258412618686,17.4117310952026,50.));
#673=CARTESIAN_POINT('Origin',(-25.9258412618686,-4.58826890479736,45.));
#674=CARTESIAN_POINT('',(-15.9258412618686,-4.58826890479736,45.));
#675=CARTESIAN_POINT('',(-15.9258412618686,-4.58826890479736,45.));
#676=CARTESIAN_POINT('',(-25.9258412618686,-4.58826890479736,45.));
#677=CARTESIAN_POINT('',(-25.9258412618686,-4.58826890479736,45.));
#678=CARTESIAN_POINT('',(-25.9258412618686,10.4117310952026,45.));
#679=CARTESIAN_POINT('',(-22.9258412618686,13.9117310952026,45.));
#680=CARTESIAN_POINT('Origin',(-20.9258412618686,13.9117310952026,45.));
#681=CARTESIAN_POINT('',(-22.9258412618686,0.411731095202637,45.));
#682=CARTESIAN_POINT('Origin',(-20.9258412618686,0.411731095202637,45.));
#683=CARTESIAN_POINT('Origin',(-0.925841261868579,10.4117310952026,50.));
#684=CARTESIAN_POINT('',(-25.9258412618686,-4.58826890479736,50.));
#685=CARTESIAN_POINT('',(-25.9258412618686,-4.58826890479736,50.));
#686=CARTESIAN_POINT('',(24.0741587381314,-4.58826890479736,50.));
#687=CARTESIAN_POINT('',(17.0741587381314,13.9117310952026,50.));
#688=CARTESIAN_POINT('Origin',(19.0741587381314,13.9117310952026,50.));
#689=CARTESIAN_POINT('',(-22.9258412618686,13.9117310952026,50.));
#690=CARTESIAN_POINT('Origin',(-20.9258412618686,13.9117310952026,50.));
#691=CARTESIAN_POINT('',(17.0741587381314,0.411731095202637,50.));
#692=CARTESIAN_POINT('Origin',(19.0741587381314,0.411731095202637,50.));
#693=CARTESIAN_POINT('',(-22.9258412618686,0.411731095202637,50.));
#694=CARTESIAN_POINT('Origin',(-20.9258412618686,0.411731095202637,50.));
#695=CARTESIAN_POINT('Origin',(19.0741587381314,13.9117310952026,0.));
#696=CARTESIAN_POINT('',(17.0741587381314,13.9117310952026,0.));
#697=CARTESIAN_POINT('Origin',(19.0741587381314,13.9117310952026,0.));
#698=CARTESIAN_POINT('',(17.0741587381314,13.9117310952026,5.));
#699=CARTESIAN_POINT('',(17.0741587381314,13.9117310952026,0.));
#700=CARTESIAN_POINT('Origin',(19.0741587381314,13.9117310952026,5.));
#701=CARTESIAN_POINT('Origin',(19.0741587381314,13.9117310952026,0.));
#702=CARTESIAN_POINT('',(17.0741587381314,13.9117310952026,0.));
#703=CARTESIAN_POINT('Origin',(-20.9258412618686,13.9117310952026,0.));
#704=CARTESIAN_POINT('',(-22.9258412618686,13.9117310952026,0.));
#705=CARTESIAN_POINT('Origin',(-20.9258412618686,13.9117310952026,0.));
#706=CARTESIAN_POINT('',(-22.9258412618686,13.9117310952026,0.));
#707=CARTESIAN_POINT('Origin',(-20.9258412618686,13.9117310952026,0.));
#708=CARTESIAN_POINT('',(-22.9258412618686,13.9117310952026,5.));
#709=CARTESIAN_POINT('',(-22.9258412618686,13.9117310952026,0.));
#710=CARTESIAN_POINT('Origin',(-20.9258412618686,13.9117310952026,5.));
#711=CARTESIAN_POINT('Origin',(-15.9258412618686,-4.58826890479736,5.));
#712=CARTESIAN_POINT('',(-25.9258412618686,-4.58826890479736,5.));
#713=CARTESIAN_POINT('',(-25.9258412618686,10.4117310952026,5.));
#714=CARTESIAN_POINT('',(-15.9258412618686,-4.58826890479736,5.));
#715=CARTESIAN_POINT('',(-20.9258412618686,-4.58826890479736,5.));
#716=CARTESIAN_POINT('',(-15.9258412618686,-4.58826890479736,5.));
#717=CARTESIAN_POINT('',(-22.9258412618686,0.411731095202636,5.));
#718=CARTESIAN_POINT('Origin',(-20.9258412618686,0.411731095202637,5.));
#719=CARTESIAN_POINT('Origin',(-25.9258412618686,25.4117310952026,0.));
#720=CARTESIAN_POINT('',(-25.9258412618686,-4.58826890479736,0.));
#721=CARTESIAN_POINT('',(-25.9258412618686,-4.58826890479736,0.));
#722=CARTESIAN_POINT('',(-25.9258412618686,-4.58826890479736,0.));
#723=CARTESIAN_POINT('Origin',(-0.925841261868579,10.4117310952026,0.));
#724=CARTESIAN_POINT('',(24.0741587381314,-4.58826890479736,0.));
#725=CARTESIAN_POINT('',(24.0741587381314,25.4117310952026,0.));
#726=CARTESIAN_POINT('',(24.0741587381314,-4.58826890479736,0.));
#727=CARTESIAN_POINT('',(-22.9258412618686,0.411731095202636,0.));
#728=CARTESIAN_POINT('Origin',(-20.9258412618686,0.411731095202637,0.));
#729=CARTESIAN_POINT('',(17.0741587381314,0.411731095202636,0.));
#730=CARTESIAN_POINT('Origin',(19.0741587381314,0.411731095202637,0.));
#731=CARTESIAN_POINT('Origin',(14.0741587381314,-4.58826890479736,5.));
#732=CARTESIAN_POINT('',(14.0741587381314,-4.58826890479736,5.));
#733=CARTESIAN_POINT('',(14.0741587381314,-4.58826890479736,17.5));
#734=CARTESIAN_POINT('',(14.0741587381314,-4.58826890479736,5.));
#735=CARTESIAN_POINT('Origin',(24.0741587381314,-4.58826890479736,0.));
#736=CARTESIAN_POINT('',(24.0741587381314,-4.58826890479736,5.));
#737=CARTESIAN_POINT('',(24.0741587381314,-4.58826890479736,5.));
#738=CARTESIAN_POINT('',(24.0741587381314,-4.58826890479736,0.));
#739=CARTESIAN_POINT('Origin',(-15.9258412618686,-4.58826890479736,35.));
#740=CARTESIAN_POINT('',(-15.9258412618686,-4.58826890479736,17.5));
#741=CARTESIAN_POINT('Origin',(24.0741587381314,-4.58826890479736,5.));
#742=CARTESIAN_POINT('',(-0.925841261868579,-4.58826890479736,5.));
#743=CARTESIAN_POINT('',(17.0741587381314,0.411731095202636,5.));
#744=CARTESIAN_POINT('Origin',(19.0741587381314,0.411731095202637,5.));
#745=CARTESIAN_POINT('Origin',(-25.9258412618686,25.4117310952026,0.));
#746=CARTESIAN_POINT('',(-25.9258412618686,-4.58826890479736,0.));
#747=CARTESIAN_POINT('Origin',(-20.9258412618686,0.411731095202637,0.));
#748=CARTESIAN_POINT('',(-22.9258412618686,0.411731095202636,0.));
#749=CARTESIAN_POINT('Origin',(19.0741587381314,0.411731095202637,0.));
#750=CARTESIAN_POINT('',(17.0741587381314,0.411731095202636,0.));
#751=CARTESIAN_POINT('Origin',(19.0741587381314,0.411731095202637,0.));
#752=CARTESIAN_POINT('',(17.0741587381314,0.411731095202636,0.));
#753=CARTESIAN_POINT('Origin',(-20.9258412618686,0.411731095202637,0.));
#754=CARTESIAN_POINT('',(-22.9258412618686,0.411731095202636,0.));
#755=CARTESIAN_POINT('Origin',(-25.9258412618686,-4.58826890479736,0.));
#756=UNCERTAINTY_MEASURE_WITH_UNIT(LENGTH_MEASURE(0.01),#760,
'DISTANCE_ACCURACY_VALUE',
'Maximum model space distance between geometric entities at asserted c
onnectivities');
#757=UNCERTAINTY_MEASURE_WITH_UNIT(LENGTH_MEASURE(0.01),#760,
'DISTANCE_ACCURACY_VALUE',
'Maximum model space distance between geometric entities at asserted c
onnectivities');
#758=(
GEOMETRIC_REPRESENTATION_CONTEXT(3)
GLOBAL_UNCERTAINTY_ASSIGNED_CONTEXT((#756))
GLOBAL_UNIT_ASSIGNED_CONTEXT((#760,#762,#763))
REPRESENTATION_CONTEXT('','3D')
);
#759=(
GEOMETRIC_REPRESENTATION_CONTEXT(3)
GLOBAL_UNCERTAINTY_ASSIGNED_CONTEXT((#757))
GLOBAL_UNIT_ASSIGNED_CONTEXT((#760,#762,#763))
REPRESENTATION_CONTEXT('','3D')
);
#760=(
LENGTH_UNIT()
NAMED_UNIT(*)
SI_UNIT(.MILLI.,.METRE.)
);
#761=(
LENGTH_UNIT()
NAMED_UNIT(*)
SI_UNIT($,.METRE.)
);
#762=(
NAMED_UNIT(*)
PLANE_ANGLE_UNIT()
SI_UNIT($,.RADIAN.)
);
#763=(
NAMED_UNIT(*)
SI_UNIT($,.STERADIAN.)
SOLID_ANGLE_UNIT()
);
#764=SHAPE_DEFINITION_REPRESENTATION(#765,#766);
#765=PRODUCT_DEFINITION_SHAPE('',$,#768);
#766=SHAPE_REPRESENTATION('',(#472),#758);
#767=PRODUCT_DEFINITION_CONTEXT('part definition',#772,'design');
#768=PRODUCT_DEFINITION('pole','pole v3',#769,#767);
#769=PRODUCT_DEFINITION_FORMATION('',$,#774);
#770=PRODUCT_RELATED_PRODUCT_CATEGORY('pole v3','pole v3',(#774));
#771=APPLICATION_PROTOCOL_DEFINITION('international standard',
'automotive_design',2009,#772);
#772=APPLICATION_CONTEXT(
'Core Data for Automotive Mechanical Design Process');
#773=PRODUCT_CONTEXT('part definition',#772,'mechanical');
#774=PRODUCT('pole','pole v3',$,(#773));
#775=PRESENTATION_STYLE_ASSIGNMENT((#776));
#776=SURFACE_STYLE_USAGE(.BOTH.,#777);
#777=SURFACE_SIDE_STYLE('',(#778));
#778=SURFACE_STYLE_FILL_AREA(#779);
#779=FILL_AREA_STYLE('Steel - Satin',(#780));
#780=FILL_AREA_STYLE_COLOUR('Steel - Satin',#781);
#781=COLOUR_RGB('Steel - Satin',0.627450980392157,0.627450980392157,0.627450980392157);
ENDSEC;
END-ISO-10303-21;
